<?xml version="1.0" standalone="no"?>
<!DOCTYPE svg PUBLIC "-//W3C//DTD SVG 20010904//EN"
 "http://www.w3.org/TR/2001/REC-SVG-20010904/DTD/svg10.dtd">
<svg version="1.0" xmlns="http://www.w3.org/2000/svg"
 width="1286.000000pt" height="1284.000000pt" viewBox="0 0 1286.000000 1284.000000"
 preserveAspectRatio="xMidYMid meet">

<g transform="translate(0.000000,1284.000000) scale(0.100000,-0.100000)"
fill="#000000" stroke="none">
<path d="M5680 12285 l0 -25 -170 0 -170 0 0 -25 0 -25 -100 0 -100 0 0 -25 0
-25 -120 0 -120 0 0 -25 c0 -24 -2 -25 -70 -25 -63 0 -70 -2 -70 -20 0 -19 -7
-20 -100 -20 l-100 0 0 -25 c0 -23 -3 -25 -50 -25 -47 0 -50 -2 -50 -25 0 -24
-2 -25 -70 -25 -68 0 -70 -1 -70 -25 0 -24 -2 -25 -75 -25 -73 0 -75 -1 -75
-25 0 -23 -3 -25 -50 -25 -47 0 -50 -2 -50 -25 0 -23 -4 -25 -45 -25 -41 0
-45 -2 -45 -25 0 -23 -3 -25 -50 -25 -47 0 -50 -2 -50 -25 0 -23 -3 -25 -50
-25 -43 0 -50 -3 -50 -20 0 -18 -7 -20 -70 -20 -68 0 -70 -1 -70 -25 0 -20 -5
-25 -25 -25 -20 0 -25 -5 -25 -25 0 -23 -3 -25 -50 -25 -47 0 -50 -2 -50 -25
0 -23 -3 -25 -50 -25 -47 0 -50 -2 -50 -25 0 -20 -5 -25 -25 -25 -20 0 -25 -5
-25 -25 0 -23 -4 -25 -45 -25 -41 0 -45 -2 -45 -25 0 -20 -5 -25 -25 -25 -18
0 -25 -5 -25 -20 0 -17 -7 -20 -50 -20 -47 0 -50 -2 -50 -25 0 -20 -5 -25 -25
-25 -20 0 -25 -5 -25 -25 0 -23 -3 -25 -50 -25 -47 0 -50 -2 -50 -25 0 -18 -5
-25 -20 -25 -15 0 -20 -7 -20 -25 0 -23 -3 -25 -50 -25 -47 0 -50 -2 -50 -25
0 -20 -5 -25 -25 -25 -20 0 -25 -5 -25 -25 0 -20 -5 -25 -25 -25 -20 0 -25 -5
-25 -25 0 -20 -5 -25 -25 -25 -18 0 -25 -5 -25 -20 0 -17 -7 -20 -45 -20 -41
0 -45 -2 -45 -25 0 -20 -5 -25 -25 -25 -20 0 -25 -5 -25 -25 0 -20 -5 -25 -25
-25 -20 0 -25 -5 -25 -25 0 -20 -5 -25 -25 -25 -20 0 -25 -5 -25 -25 0 -20 -5
-25 -25 -25 -20 0 -25 -5 -25 -25 0 -20 -5 -25 -25 -25 -20 0 -25 -5 -25 -25
0 -20 -5 -25 -25 -25 -18 0 -25 -5 -25 -20 0 -15 -7 -20 -25 -20 -20 0 -25 -5
-25 -25 0 -18 -5 -25 -20 -25 -15 0 -20 -7 -20 -25 0 -20 -5 -25 -25 -25 -20
0 -25 -5 -25 -25 0 -20 -5 -25 -25 -25 -20 0 -25 -5 -25 -25 0 -20 -5 -25 -25
-25 -20 0 -25 -5 -25 -25 0 -20 -5 -25 -25 -25 -20 0 -25 -5 -25 -25 0 -20 -5
-25 -25 -25 -20 0 -25 -5 -25 -25 0 -20 -5 -25 -25 -25 -23 0 -25 -4 -25 -45
0 -38 -3 -45 -20 -45 -15 0 -20 -7 -20 -25 0 -20 -5 -25 -25 -25 -20 0 -25 -5
-25 -25 0 -20 -5 -25 -25 -25 -23 0 -25 -3 -25 -50 0 -47 -2 -50 -25 -50 -20
0 -25 -5 -25 -25 0 -20 -5 -25 -25 -25 -18 0 -25 -5 -25 -20 0 -15 -7 -20 -25
-20 -20 0 -25 -5 -25 -25 0 -20 -5 -25 -25 -25 -23 0 -25 -3 -25 -50 0 -47 -2
-50 -25 -50 -23 0 -25 -3 -25 -50 0 -43 -3 -50 -20 -50 -15 0 -20 -7 -20 -25
0 -20 -5 -25 -25 -25 -23 0 -25 -4 -25 -45 0 -41 -2 -45 -25 -45 -20 0 -25 -5
-25 -25 0 -20 -5 -25 -25 -25 -23 0 -25 -3 -25 -50 0 -47 -2 -50 -25 -50 -23
0 -25 -3 -25 -50 0 -47 -2 -50 -25 -50 -20 0 -25 -5 -25 -25 0 -20 -5 -25 -25
-25 -24 0 -25 -2 -25 -70 0 -63 -2 -70 -20 -70 -17 0 -20 -7 -20 -50 0 -47 -2
-50 -25 -50 -23 0 -25 -3 -25 -50 0 -47 -2 -50 -25 -50 -23 0 -25 -4 -25 -45
0 -41 -2 -45 -25 -45 -23 0 -25 -3 -25 -50 0 -47 -2 -50 -25 -50 -24 0 -25 -2
-25 -75 0 -73 -1 -75 -25 -75 -24 0 -25 -2 -25 -70 0 -68 -1 -70 -25 -70 -24
0 -25 -2 -25 -75 0 -73 -1 -75 -25 -75 -24 0 -25 -2 -25 -75 0 -68 -2 -75 -20
-75 -18 0 -20 -7 -20 -70 0 -68 -1 -70 -25 -70 l-25 0 0 -120 0 -120 -25 0
-25 0 0 -100 0 -100 -25 0 -25 0 0 -170 0 -170 -25 0 -25 0 0 -730 0 -730 25
0 25 0 0 -170 0 -170 25 0 25 0 0 -100 0 -100 25 0 25 0 0 -120 0 -120 25 0
c24 0 25 -2 25 -70 0 -63 2 -70 20 -70 19 0 20 -7 20 -100 l0 -100 25 0 c23 0
25 -3 25 -50 0 -47 2 -50 25 -50 24 0 25 -2 25 -70 0 -68 1 -70 25 -70 24 0
25 -2 25 -75 0 -73 1 -75 25 -75 23 0 25 -3 25 -50 0 -47 2 -50 25 -50 23 0
25 -4 25 -45 0 -41 2 -45 25 -45 23 0 25 -3 25 -50 0 -47 2 -50 25 -50 23 0
25 -3 25 -50 0 -43 3 -50 20 -50 18 0 20 -7 20 -70 0 -68 1 -70 25 -70 20 0
25 -5 25 -25 0 -20 5 -25 25 -25 23 0 25 -3 25 -50 0 -47 2 -50 25 -50 23 0
25 -3 25 -50 0 -47 2 -50 25 -50 23 0 25 -4 25 -45 0 -41 2 -45 25 -45 20 0
25 -5 25 -25 0 -20 5 -25 25 -25 20 0 25 -5 25 -25 0 -18 5 -25 20 -25 17 0
20 -7 20 -50 0 -47 2 -50 25 -50 23 0 25 -3 25 -50 0 -47 2 -50 25 -50 20 0
25 -5 25 -25 0 -20 5 -25 25 -25 18 0 25 -5 25 -20 0 -15 7 -20 25 -20 23 0
25 -3 25 -50 0 -47 2 -50 25 -50 20 0 25 -5 25 -25 0 -20 5 -25 25 -25 20 0
25 -5 25 -25 0 -20 5 -25 25 -25 20 0 25 -5 25 -25 0 -18 5 -25 20 -25 17 0
20 -7 20 -45 0 -41 2 -45 25 -45 20 0 25 -5 25 -25 0 -20 5 -25 25 -25 20 0
25 -5 25 -25 0 -20 5 -25 25 -25 20 0 25 -5 25 -25 0 -20 5 -25 25 -25 20 0
25 -5 25 -25 0 -20 5 -25 25 -25 20 0 25 -5 25 -25 0 -20 5 -25 25 -25 20 0
25 -5 25 -25 0 -18 5 -25 20 -25 15 0 20 -7 20 -25 0 -20 5 -25 25 -25 18 0
25 -5 25 -20 0 -15 7 -20 25 -20 20 0 25 -5 25 -25 0 -20 5 -25 25 -25 20 0
25 -5 25 -25 0 -20 5 -25 25 -25 20 0 25 -5 25 -25 0 -20 5 -25 25 -25 20 0
25 -5 25 -25 0 -20 5 -25 25 -25 20 0 25 -5 25 -25 0 -20 5 -25 25 -25 20 0
25 -5 25 -25 0 -23 4 -25 45 -25 38 0 45 -3 45 -20 0 -15 7 -20 25 -20 20 0
25 -5 25 -25 0 -20 5 -25 25 -25 20 0 25 -5 25 -25 0 -20 5 -25 25 -25 20 0
25 -5 25 -25 0 -23 3 -25 50 -25 47 0 50 -2 50 -25 0 -18 5 -25 20 -25 15 0
20 -7 20 -25 0 -20 5 -25 25 -25 20 0 25 -5 25 -25 0 -23 3 -25 50 -25 47 0
50 -2 50 -25 0 -23 3 -25 50 -25 43 0 50 -3 50 -20 0 -15 7 -20 25 -20 20 0
25 -5 25 -25 0 -23 4 -25 45 -25 41 0 45 -2 45 -25 0 -20 5 -25 25 -25 20 0
25 -5 25 -25 0 -23 3 -25 50 -25 47 0 50 -2 50 -25 0 -23 3 -25 50 -25 47 0
50 -2 50 -25 0 -20 5 -25 25 -25 20 0 25 -5 25 -25 0 -24 2 -25 70 -25 63 0
70 -2 70 -20 0 -17 7 -20 50 -20 47 0 50 -2 50 -25 0 -23 3 -25 50 -25 47 0
50 -2 50 -25 0 -23 4 -25 45 -25 41 0 45 -2 45 -25 0 -23 3 -25 50 -25 47 0
50 -2 50 -25 0 -24 2 -25 75 -25 73 0 75 -1 75 -25 0 -24 2 -25 70 -25 68 0
70 -1 70 -25 0 -23 3 -25 50 -25 47 0 50 -2 50 -25 l0 -25 100 0 c93 0 100 -1
100 -20 0 -18 7 -20 70 -20 68 0 70 -1 70 -25 l0 -25 120 0 120 0 0 -25 0 -25
100 0 100 0 0 -25 0 -25 170 0 170 0 0 -25 0 -25 730 0 730 0 0 25 0 25 170 0
170 0 0 25 0 25 100 0 100 0 0 25 0 25 120 0 120 0 0 25 c0 24 2 25 70 25 63
0 70 2 70 20 0 19 7 20 100 20 l100 0 0 25 c0 23 3 25 50 25 47 0 50 2 50 25
0 24 2 25 70 25 68 0 70 1 70 25 0 24 2 25 75 25 73 0 75 1 75 25 0 23 3 25
50 25 47 0 50 2 50 25 0 23 4 25 45 25 41 0 45 2 45 25 0 23 3 25 50 25 47 0
50 2 50 25 0 23 3 25 50 25 43 0 50 3 50 20 0 18 7 20 70 20 68 0 70 1 70 25
0 20 5 25 25 25 20 0 25 5 25 25 0 23 3 25 50 25 47 0 50 2 50 25 0 23 3 25
50 25 47 0 50 2 50 25 0 20 5 25 25 25 20 0 25 5 25 25 0 23 4 25 45 25 41 0
45 2 45 25 0 20 5 25 25 25 18 0 25 5 25 20 0 17 7 20 50 20 47 0 50 2 50 25
0 20 5 25 25 25 20 0 25 5 25 25 0 23 3 25 50 25 47 0 50 2 50 25 0 18 5 25
20 25 15 0 20 7 20 25 0 23 3 25 50 25 47 0 50 2 50 25 0 20 5 25 25 25 20 0
25 5 25 25 0 20 5 25 25 25 20 0 25 5 25 25 0 20 5 25 25 25 18 0 25 5 25 20
0 17 7 20 45 20 41 0 45 2 45 25 0 20 5 25 25 25 20 0 25 5 25 25 0 20 5 25
25 25 20 0 25 5 25 25 0 20 5 25 25 25 20 0 25 5 25 25 0 20 5 25 25 25 20 0
25 5 25 25 0 20 5 25 25 25 20 0 25 5 25 25 0 20 5 25 25 25 18 0 25 5 25 20
0 15 7 20 25 20 20 0 25 5 25 25 0 18 5 25 20 25 15 0 20 7 20 25 0 20 5 25
25 25 20 0 25 5 25 25 0 20 5 25 25 25 20 0 25 5 25 25 0 20 5 25 25 25 20 0
25 5 25 25 0 20 5 25 25 25 20 0 25 5 25 25 0 20 5 25 25 25 20 0 25 5 25 25
0 20 5 25 25 25 23 0 25 4 25 45 0 38 3 45 20 45 15 0 20 7 20 25 0 20 5 25
25 25 20 0 25 5 25 25 0 20 5 25 25 25 20 0 25 5 25 25 0 20 5 25 25 25 23 0
25 3 25 50 0 47 2 50 25 50 18 0 25 5 25 20 0 15 7 20 25 20 20 0 25 5 25 25
0 20 5 25 25 25 23 0 25 3 25 50 0 47 2 50 25 50 23 0 25 3 25 50 0 43 3 50
20 50 15 0 20 7 20 25 0 20 5 25 25 25 20 0 25 5 25 25 0 20 5 25 25 25 23 0
25 4 25 45 0 41 2 45 25 45 23 0 25 3 25 50 0 47 2 50 25 50 23 0 25 3 25 50
0 47 2 50 25 50 20 0 25 5 25 25 0 20 5 25 25 25 23 0 25 4 25 45 0 38 3 45
20 45 18 0 20 7 20 75 0 73 1 75 25 75 23 0 25 3 25 50 0 47 2 50 25 50 23 0
25 4 25 45 0 41 2 45 25 45 23 0 25 3 25 50 0 47 2 50 25 50 24 0 25 2 25 75
0 73 1 75 25 75 24 0 25 2 25 70 0 68 1 70 25 70 23 0 25 3 25 50 0 47 2 50
25 50 l25 0 0 100 c0 93 1 100 20 100 18 0 20 7 20 70 0 68 1 70 25 70 l25 0
0 120 0 120 25 0 25 0 0 100 0 100 25 0 25 0 0 170 0 170 25 0 25 0 0 730 0
730 -25 0 -25 0 0 170 0 170 -25 0 -25 0 0 100 0 100 -25 0 -25 0 0 120 0 120
-25 0 c-24 0 -25 2 -25 70 0 63 -2 70 -20 70 -19 0 -20 7 -20 100 l0 100 -25
0 c-23 0 -25 3 -25 50 0 47 -2 50 -25 50 -24 0 -25 2 -25 70 0 68 -1 70 -25
70 -24 0 -25 2 -25 75 0 73 -1 75 -25 75 -23 0 -25 3 -25 50 0 47 -2 50 -25
50 -23 0 -25 4 -25 45 0 41 -2 45 -25 45 -23 0 -25 3 -25 50 0 47 -2 50 -25
50 -23 0 -25 3 -25 50 0 43 -3 50 -20 50 -18 0 -20 7 -20 70 0 68 -1 70 -25
70 -20 0 -25 5 -25 25 0 20 -5 25 -25 25 -23 0 -25 3 -25 50 0 47 -2 50 -25
50 -23 0 -25 3 -25 50 0 47 -2 50 -25 50 -23 0 -25 4 -25 45 0 41 -2 45 -25
45 -20 0 -25 5 -25 25 0 20 -5 25 -25 25 -20 0 -25 5 -25 25 0 18 -5 25 -20
25 -17 0 -20 7 -20 50 0 47 -2 50 -25 50 -23 0 -25 3 -25 50 0 47 -2 50 -25
50 -20 0 -25 5 -25 25 0 20 -5 25 -25 25 -18 0 -25 5 -25 20 0 15 -7 20 -25
20 -23 0 -25 3 -25 50 0 47 -2 50 -25 50 -20 0 -25 5 -25 25 0 20 -5 25 -25
25 -20 0 -25 5 -25 25 0 20 -5 25 -25 25 -20 0 -25 5 -25 25 0 18 -5 25 -20
25 -17 0 -20 7 -20 45 0 41 -2 45 -25 45 -20 0 -25 5 -25 25 0 20 -5 25 -25
25 -20 0 -25 5 -25 25 0 20 -5 25 -25 25 -20 0 -25 5 -25 25 0 20 -5 25 -25
25 -20 0 -25 5 -25 25 0 20 -5 25 -25 25 -20 0 -25 5 -25 25 0 20 -5 25 -25
25 -20 0 -25 5 -25 25 0 18 -5 25 -20 25 -15 0 -20 7 -20 25 0 20 -5 25 -25
25 -18 0 -25 5 -25 20 0 15 -7 20 -25 20 -20 0 -25 5 -25 25 0 20 -5 25 -25
25 -20 0 -25 5 -25 25 0 20 -5 25 -25 25 -20 0 -25 5 -25 25 0 20 -5 25 -25
25 -20 0 -25 5 -25 25 0 20 -5 25 -25 25 -20 0 -25 5 -25 25 0 20 -5 25 -25
25 -20 0 -25 5 -25 25 0 23 -4 25 -45 25 -38 0 -45 3 -45 20 0 15 -7 20 -25
20 -20 0 -25 5 -25 25 0 20 -5 25 -25 25 -20 0 -25 5 -25 25 0 20 -5 25 -25
25 -20 0 -25 5 -25 25 0 23 -3 25 -50 25 -47 0 -50 2 -50 25 0 18 -5 25 -20
25 -15 0 -20 7 -20 25 0 23 -3 25 -50 25 -47 0 -50 2 -50 25 0 20 -5 25 -25
25 -20 0 -25 5 -25 25 0 23 -3 25 -50 25 -43 0 -50 3 -50 20 0 15 -7 20 -25
20 -20 0 -25 5 -25 25 0 23 -4 25 -45 25 -41 0 -45 2 -45 25 0 20 -5 25 -25
25 -20 0 -25 5 -25 25 0 23 -3 25 -50 25 -47 0 -50 2 -50 25 0 23 -3 25 -50
25 -47 0 -50 2 -50 25 0 20 -5 25 -25 25 -20 0 -25 5 -25 25 0 24 -2 25 -70
25 -63 0 -70 2 -70 20 0 17 -7 20 -50 20 -47 0 -50 2 -50 25 0 23 -3 25 -50
25 -47 0 -50 2 -50 25 0 23 -4 25 -45 25 -41 0 -45 2 -45 25 0 23 -3 25 -50
25 -47 0 -50 2 -50 25 0 24 -2 25 -75 25 -73 0 -75 1 -75 25 0 24 -2 25 -70
25 -68 0 -70 1 -70 25 0 23 -3 25 -50 25 -47 0 -50 2 -50 25 l0 25 -100 0
c-93 0 -100 1 -100 20 0 18 -7 20 -70 20 -68 0 -70 1 -70 25 l0 25 -120 0
-120 0 0 25 0 25 -100 0 -100 0 0 25 0 25 -170 0 -170 0 0 25 0 25 -730 0
-730 0 0 -25z m1120 -780 l0 -25 220 0 220 0 0 -25 0 -25 120 0 120 0 0 -25 0
-25 100 0 c93 0 100 -1 100 -20 0 -19 7 -20 95 -20 95 0 95 0 95 -25 0 -24 2
-25 75 -25 73 0 75 -1 75 -25 0 -24 2 -25 70 -25 68 0 70 -1 70 -25 0 -24 2
-25 75 -25 73 0 75 -1 75 -25 0 -23 3 -25 50 -25 47 0 50 -2 50 -25 0 -23 4
-25 45 -25 41 0 45 -2 45 -25 0 -24 2 -25 75 -25 73 0 75 -1 75 -25 0 -23 3
-25 50 -25 43 0 50 -3 50 -20 0 -13 7 -20 20 -20 15 0 20 -7 20 -25 0 -23 3
-25 50 -25 47 0 50 -2 50 -25 0 -23 3 -25 50 -25 47 0 50 -2 50 -25 0 -23 3
-25 50 -25 47 0 50 -2 50 -25 0 -20 5 -25 25 -25 20 0 25 -5 25 -25 0 -23 4
-25 45 -25 41 0 45 -2 45 -25 0 -20 5 -25 25 -25 18 0 25 -5 25 -20 0 -17 7
-20 50 -20 47 0 50 -2 50 -25 0 -20 5 -25 25 -25 20 0 25 -5 25 -25 0 -20 5
-25 25 -25 20 0 25 -5 25 -25 0 -23 4 -25 45 -25 41 0 45 -2 45 -25 0 -20 5
-25 25 -25 20 0 25 -5 25 -25 0 -20 5 -25 25 -25 20 0 25 -5 25 -25 0 -20 5
-25 25 -25 20 0 25 -5 25 -25 0 -23 3 -25 50 -25 43 0 50 -3 50 -20 0 -15 7
-20 25 -20 20 0 25 -5 25 -25 0 -18 5 -25 20 -25 15 0 20 -7 20 -25 0 -20 5
-25 25 -25 20 0 25 -5 25 -25 0 -20 5 -25 25 -25 20 0 25 -5 25 -25 0 -20 5
-25 25 -25 20 0 25 -5 25 -25 0 -20 5 -25 25 -25 20 0 25 -5 25 -25 0 -20 5
-25 25 -25 18 0 25 -5 25 -20 0 -15 7 -20 25 -20 20 0 25 -5 25 -25 0 -18 5
-25 20 -25 17 0 20 -7 20 -50 0 -47 2 -50 25 -50 20 0 25 -5 25 -25 0 -20 5
-25 25 -25 20 0 25 -5 25 -25 0 -20 5 -25 25 -25 20 0 25 -5 25 -25 0 -20 5
-25 25 -25 23 0 25 -4 25 -45 0 -41 2 -45 25 -45 20 0 25 -5 25 -25 0 -20 5
-25 25 -25 20 0 25 -5 25 -25 0 -20 5 -25 25 -25 23 0 25 -3 25 -50 0 -43 3
-50 20 -50 15 0 20 -7 20 -25 0 -20 5 -25 25 -25 23 0 25 -4 25 -45 0 -41 2
-45 25 -45 20 0 25 -5 25 -25 0 -20 5 -25 25 -25 23 0 25 -3 25 -50 0 -47 2
-50 25 -50 23 0 25 -3 25 -50 0 -47 2 -50 25 -50 23 0 25 -3 25 -50 0 -47 2
-50 25 -50 23 0 25 -4 25 -45 0 -38 3 -45 20 -45 15 0 20 -7 20 -25 0 -20 5
-25 25 -25 24 0 25 -2 25 -75 0 -73 1 -75 25 -75 23 0 25 -4 25 -45 0 -41 2
-45 25 -45 23 0 25 -3 25 -50 0 -47 2 -50 25 -50 24 0 25 -2 25 -75 0 -73 1
-75 25 -75 24 0 25 -2 25 -70 0 -68 1 -70 25 -70 24 0 25 -2 25 -75 0 -73 1
-75 25 -75 25 0 25 0 25 -95 0 -88 1 -95 20 -95 19 0 20 -7 20 -100 l0 -100
25 0 25 0 0 -120 0 -120 25 0 25 0 0 -195 0 -195 25 0 25 0 0 -440 0 -440 -25
0 -25 0 0 -195 0 -195 -25 0 -25 0 0 -120 0 -120 -25 0 -25 0 0 -100 c0 -93
-1 -100 -20 -100 -19 0 -20 -7 -20 -95 0 -95 0 -95 -25 -95 -24 0 -25 -2 -25
-75 0 -73 -1 -75 -25 -75 -24 0 -25 -2 -25 -70 0 -68 -1 -70 -25 -70 -24 0
-25 -2 -25 -75 0 -73 -1 -75 -25 -75 -23 0 -25 -3 -25 -50 0 -47 -2 -50 -25
-50 -23 0 -25 -4 -25 -45 0 -41 -2 -45 -25 -45 -24 0 -25 -2 -25 -75 0 -73 -1
-75 -25 -75 -20 0 -25 -5 -25 -25 0 -18 -5 -25 -20 -25 -17 0 -20 -7 -20 -45
0 -41 -2 -45 -25 -45 -23 0 -25 -3 -25 -50 0 -47 -2 -50 -25 -50 -23 0 -25 -3
-25 -50 0 -47 -2 -50 -25 -50 -23 0 -25 -3 -25 -50 0 -47 -2 -50 -25 -50 -20
0 -25 -5 -25 -25 0 -20 -5 -25 -25 -25 -23 0 -25 -4 -25 -45 0 -41 -2 -45 -25
-45 -20 0 -25 -5 -25 -25 0 -18 -5 -25 -20 -25 -17 0 -20 -7 -20 -50 0 -47 -2
-50 -25 -50 -20 0 -25 -5 -25 -25 0 -20 -5 -25 -25 -25 -20 0 -25 -5 -25 -25
0 -20 -5 -25 -25 -25 -23 0 -25 -4 -25 -45 0 -41 -2 -45 -25 -45 -20 0 -25 -5
-25 -25 0 -20 -5 -25 -25 -25 -20 0 -25 -5 -25 -25 0 -20 -5 -25 -25 -25 -20
0 -25 -5 -25 -25 0 -20 -5 -25 -25 -25 -23 0 -25 -3 -25 -50 0 -43 -3 -50 -20
-50 -15 0 -20 -7 -20 -25 0 -20 -5 -25 -25 -25 -18 0 -25 -5 -25 -20 0 -15 -7
-20 -25 -20 -20 0 -25 -5 -25 -25 0 -20 -5 -25 -25 -25 -20 0 -25 -5 -25 -25
0 -20 -5 -25 -25 -25 -20 0 -25 -5 -25 -25 0 -20 -5 -25 -25 -25 -20 0 -25 -5
-25 -25 0 -20 -5 -25 -25 -25 -20 0 -25 -5 -25 -25 0 -18 -5 -25 -20 -25 -15
0 -20 -7 -20 -25 0 -20 -5 -25 -25 -25 -18 0 -25 -5 -25 -20 0 -17 -7 -20 -50
-20 -47 0 -50 -2 -50 -25 0 -20 -5 -25 -25 -25 -20 0 -25 -5 -25 -25 0 -20 -5
-25 -25 -25 -20 0 -25 -5 -25 -25 0 -20 -5 -25 -25 -25 -20 0 -25 -5 -25 -25
0 -23 -4 -25 -45 -25 -41 0 -45 -2 -45 -25 0 -20 -5 -25 -25 -25 -20 0 -25 -5
-25 -25 0 -20 -5 -25 -25 -25 -20 0 -25 -5 -25 -25 0 -23 -3 -25 -50 -25 -43
0 -50 -3 -50 -20 0 -15 -7 -20 -25 -20 -20 0 -25 -5 -25 -25 0 -23 -4 -25 -45
-25 -41 0 -45 -2 -45 -25 0 -20 -5 -25 -25 -25 -20 0 -25 -5 -25 -25 0 -23 -3
-25 -50 -25 -47 0 -50 -2 -50 -25 0 -23 -3 -25 -50 -25 -47 0 -50 -2 -50 -25
0 -23 -3 -25 -50 -25 -47 0 -50 -2 -50 -25 0 -23 -4 -25 -45 -25 -38 0 -45 -3
-45 -20 0 -15 -7 -20 -25 -20 -20 0 -25 -5 -25 -25 0 -24 -2 -25 -75 -25 -73
0 -75 -1 -75 -25 0 -23 -4 -25 -45 -25 -41 0 -45 -2 -45 -25 0 -23 -3 -25 -50
-25 -47 0 -50 -2 -50 -25 0 -24 -2 -25 -75 -25 -73 0 -75 -1 -75 -25 0 -24 -2
-25 -70 -25 -68 0 -70 -1 -70 -25 0 -24 -2 -25 -75 -25 -73 0 -75 -1 -75 -25
0 -25 0 -25 -95 -25 -88 0 -95 -1 -95 -20 0 -19 -7 -20 -100 -20 l-100 0 0
-25 0 -25 -120 0 -120 0 0 -25 0 -25 -220 0 -220 0 0 -25 0 -25 -390 0 -390 0
0 25 0 25 -220 0 -220 0 0 25 0 25 -120 0 -120 0 0 25 0 25 -100 0 c-93 0
-100 1 -100 20 0 19 -7 20 -95 20 -95 0 -95 0 -95 25 0 24 -2 25 -75 25 -73 0
-75 1 -75 25 0 24 -2 25 -70 25 l-70 0 0 50 c0 47 2 50 25 50 24 0 25 2 25 75
0 73 1 75 25 75 23 0 25 4 25 45 0 38 3 45 20 45 18 0 20 7 20 75 0 73 1 75
25 75 25 0 25 0 25 95 0 95 0 95 25 95 l25 0 0 100 0 100 25 0 c25 0 25 0 25
95 0 95 0 95 25 95 24 0 25 2 25 75 0 73 1 75 25 75 23 0 25 3 25 50 0 47 2
50 25 50 24 0 25 2 25 70 0 63 2 70 20 70 17 0 20 7 20 50 0 47 2 50 25 50 23
0 25 3 25 50 0 47 2 50 25 50 23 0 25 4 25 45 0 41 2 45 25 45 20 0 25 5 25
25 0 20 5 25 25 25 23 0 25 3 25 50 0 47 2 50 25 50 20 0 25 5 25 25 0 20 5
25 25 25 20 0 25 5 25 25 0 20 5 25 25 25 20 0 25 5 25 25 0 18 5 25 20 25 13
0 20 7 20 20 0 15 7 20 25 20 20 0 25 5 25 25 0 20 5 25 25 25 20 0 25 5 25
25 0 23 3 25 50 25 47 0 50 2 50 25 0 23 3 25 50 25 47 0 50 2 50 25 0 23 4
25 45 25 41 0 45 2 45 25 0 24 2 25 75 25 73 0 75 1 75 25 l0 25 315 0 315 0
0 -25 0 -25 100 0 100 0 0 -25 c0 -25 0 -25 95 -25 95 0 95 0 95 -25 l0 -25
100 0 100 0 0 -25 c0 -23 4 -25 45 -25 41 0 45 -2 45 -25 0 -24 2 -25 75 -25
73 0 75 -1 75 -25 0 -24 2 -25 75 -25 68 0 75 -2 75 -20 0 -20 7 -20 340 -20
333 0 340 0 340 20 0 19 7 20 120 20 l120 0 0 25 c0 23 3 25 50 25 47 0 50 2
50 25 0 25 0 25 95 25 95 0 95 0 95 25 0 23 3 25 50 25 47 0 50 2 50 25 0 24
2 25 75 25 73 0 75 1 75 25 0 23 4 25 45 25 41 0 45 2 45 25 0 20 5 25 25 25
20 0 25 5 25 25 0 20 5 25 25 25 18 0 25 5 25 20 0 17 7 20 50 20 47 0 50 2
50 25 0 20 5 25 25 25 20 0 25 5 25 25 0 18 5 25 20 25 15 0 20 7 20 25 0 23
3 25 50 25 47 0 50 2 50 25 0 20 5 25 25 25 20 0 25 5 25 25 0 20 5 25 25 25
20 0 25 5 25 25 0 20 5 25 25 25 23 0 25 4 25 45 0 41 2 45 25 45 20 0 25 5
25 25 0 20 5 25 25 25 l25 0 0 100 0 100 -25 0 c-20 0 -25 5 -25 25 0 20 -5
25 -25 25 -18 0 -25 5 -25 20 0 15 -7 20 -25 20 -20 0 -25 5 -25 25 0 23 -3
25 -50 25 -47 0 -50 2 -50 25 0 20 -5 25 -25 25 -20 0 -25 5 -25 25 0 20 -5
25 -25 25 -20 0 -25 5 -25 25 0 18 -5 25 -20 25 -15 0 -20 7 -20 25 0 23 -3
25 -50 25 -47 0 -50 2 -50 25 0 20 -5 25 -25 25 -18 0 -25 5 -25 20 0 15 -7
20 -25 20 -20 0 -25 5 -25 25 0 23 -3 25 -50 25 -47 0 -50 2 -50 25 0 18 -5
25 -20 25 -15 0 -20 7 -20 25 0 20 -5 25 -25 25 -20 0 -25 5 -25 25 0 20 -5
25 -25 25 -20 0 -25 5 -25 25 0 23 -3 25 -50 25 -47 0 -50 2 -50 25 0 20 -5
25 -25 25 -20 0 -25 5 -25 25 0 20 -5 25 -25 25 -18 0 -25 5 -25 20 0 15 -7
20 -25 20 -20 0 -25 5 -25 25 0 18 -5 25 -20 25 -15 0 -20 7 -20 25 0 23 -3
25 -50 25 -47 0 -50 2 -50 25 0 20 -5 25 -25 25 -20 0 -25 5 -25 25 0 20 -5
25 -25 25 -20 0 -25 5 -25 25 0 20 -5 25 -25 25 -20 0 -25 5 -25 25 0 20 -5
25 -25 25 -18 0 -25 5 -25 20 0 13 -7 20 -20 20 -15 0 -20 7 -20 25 0 20 -5
25 -25 25 -20 0 -25 5 -25 25 0 20 -5 25 -25 25 -20 0 -25 5 -25 25 0 20 -5
25 -25 25 -20 0 -25 5 -25 25 0 20 -5 25 -25 25 -20 0 -25 5 -25 25 0 20 -5
25 -25 25 -20 0 -25 5 -25 25 0 20 -5 25 -25 25 -23 0 -25 4 -25 45 0 41 -2
45 -25 45 -20 0 -25 5 -25 25 0 18 -5 25 -20 25 -15 0 -20 7 -20 25 0 20 -5
25 -25 25 -23 0 -25 3 -25 50 0 47 -2 50 -25 50 -23 0 -25 3 -25 50 0 47 -2
50 -25 50 -24 0 -25 2 -25 70 0 68 -1 70 -25 70 -23 0 -25 3 -25 50 0 47 -2
50 -25 50 -24 0 -25 2 -25 75 0 73 -1 75 -25 75 -24 0 -25 2 -25 70 0 63 -2
70 -20 70 -18 0 -20 7 -20 75 0 73 -1 75 -25 75 -24 0 -25 2 -25 70 0 68 -1
70 -25 70 -23 0 -25 3 -25 50 0 47 -2 50 -25 50 -23 0 -25 3 -25 50 0 47 -2
50 -25 50 -23 0 -25 3 -25 50 0 47 -2 50 -25 50 -23 0 -25 4 -25 45 0 41 -2
45 -25 45 -23 0 -25 3 -25 50 0 47 -2 50 -25 50 -20 0 -25 5 -25 25 0 18 -5
25 -20 25 -17 0 -20 7 -20 50 0 47 -2 50 -25 50 -18 0 -25 5 -25 20 0 15 -7
20 -25 20 -23 0 -25 3 -25 50 0 47 -2 50 -25 50 -20 0 -25 5 -25 25 0 20 -5
25 -25 25 -23 0 -25 3 -25 50 0 47 -2 50 -25 50 -20 0 -25 5 -25 25 0 20 -5
25 -25 25 -23 0 -25 4 -25 45 0 38 -3 45 -20 45 -15 0 -20 7 -20 25 0 20 -5
25 -25 25 -24 0 -25 2 -25 75 0 73 -1 75 -25 75 l-25 0 0 220 0 220 25 0 c20
0 25 5 25 25 0 20 -5 25 -25 25 -24 0 -25 2 -25 70 0 68 -1 70 -25 70 l-25 0
0 120 0 120 -25 0 -25 0 0 390 0 390 -25 0 c-23 0 -25 3 -25 50 l0 50 -70 0
c-68 0 -70 -1 -70 -25 0 -20 -5 -25 -25 -25 -20 0 -25 -5 -25 -25 0 -20 -5
-25 -25 -25 -20 0 -25 -5 -25 -25 0 -23 -3 -25 -50 -25 -43 0 -50 -3 -50 -20
0 -15 -7 -20 -25 -20 -20 0 -25 -5 -25 -25 0 -20 -5 -25 -25 -25 -20 0 -25 -5
-25 -25 0 -18 -5 -25 -20 -25 -15 0 -20 -7 -20 -25 0 -20 -5 -25 -25 -25 -20
0 -25 -5 -25 -25 0 -20 -5 -25 -25 -25 -20 0 -25 -5 -25 -25 0 -23 -3 -25 -50
-25 -47 0 -50 -2 -50 -25 0 -20 -5 -25 -25 -25 -18 0 -25 -5 -25 -20 0 -17 -7
-20 -50 -20 -47 0 -50 -2 -50 -25 0 -23 -4 -25 -45 -25 -41 0 -45 -2 -45 -25
0 -20 -5 -25 -25 -25 -20 0 -25 -5 -25 -25 0 -23 -3 -25 -50 -25 -47 0 -50 -2
-50 -25 0 -20 -5 -25 -25 -25 -20 0 -25 -5 -25 -25 0 -23 -4 -25 -45 -25 -41
0 -45 -2 -45 -25 0 -20 -5 -25 -25 -25 -20 0 -25 -5 -25 -25 0 -20 -5 -25 -25
-25 -18 0 -25 -5 -25 -20 0 -17 -7 -20 -50 -20 -47 0 -50 -2 -50 -25 0 -20 -5
-25 -25 -25 -20 0 -25 -5 -25 -25 0 -20 -5 -25 -25 -25 -20 0 -25 -5 -25 -25
0 -20 -5 -25 -25 -25 -20 0 -25 -5 -25 -25 0 -18 -5 -25 -20 -25 -15 0 -20 -7
-20 -25 0 -20 -5 -25 -25 -25 -24 0 -25 -2 -25 -70 l0 -70 45 0 c41 0 45 -2
45 -25 0 -24 2 -25 75 -25 73 0 75 -1 75 -25 0 -24 2 -25 75 -25 73 0 75 -1
75 -25 0 -25 0 -25 95 -25 95 0 95 0 95 -25 0 -24 2 -25 75 -25 73 0 75 -1 75
-25 0 -24 2 -25 70 -25 68 0 70 -1 70 -25 0 -24 2 -25 75 -25 68 0 75 -2 75
-20 0 -17 7 -20 50 -20 47 0 50 -2 50 -25 0 -23 4 -25 45 -25 41 0 45 -2 45
-25 0 -20 5 -25 25 -25 20 0 25 -5 25 -25 0 -23 3 -25 50 -25 47 0 50 -2 50
-25 0 -20 5 -25 25 -25 20 0 25 -5 25 -25 0 -20 5 -25 25 -25 20 0 25 -5 25
-25 0 -20 5 -25 25 -25 18 0 25 -5 25 -20 0 -13 7 -20 20 -20 15 0 20 -7 20
-25 0 -20 5 -25 25 -25 20 0 25 -5 25 -25 0 -20 5 -25 25 -25 23 0 25 -3 25
-50 0 -47 2 -50 25 -50 20 0 25 -5 25 -25 0 -20 5 -25 25 -25 23 0 25 -3 25
-50 0 -47 2 -50 25 -50 18 0 25 -5 25 -20 0 -15 7 -20 25 -20 23 0 25 -3 25
-50 0 -47 2 -50 25 -50 20 0 25 -5 25 -25 0 -18 5 -25 20 -25 18 0 20 -7 20
-75 0 -73 1 -75 25 -75 23 0 25 -4 25 -45 0 -41 2 -45 25 -45 24 0 25 -2 25
-75 0 -73 1 -75 25 -75 24 0 25 -2 25 -75 0 -73 1 -75 25 -75 24 0 25 -2 25
-70 0 -68 1 -70 25 -70 24 0 25 -2 25 -75 0 -73 1 -75 25 -75 23 0 25 -4 25
-45 0 -38 3 -45 20 -45 17 0 20 -7 20 -50 0 -47 2 -50 25 -50 23 0 25 -3 25
-50 0 -47 2 -50 25 -50 20 0 25 -5 25 -25 0 -20 5 -25 25 -25 23 0 25 -3 25
-50 0 -47 2 -50 25 -50 23 0 25 -4 25 -45 0 -41 -2 -45 -25 -45 -20 0 -25 5
-25 25 0 20 -5 25 -25 25 -23 0 -25 4 -25 45 0 41 -2 45 -25 45 -20 0 -25 5
-25 25 0 20 -5 25 -25 25 -20 0 -25 5 -25 25 0 18 -5 25 -20 25 -15 0 -20 7
-20 25 0 20 -5 25 -25 25 -23 0 -25 3 -25 50 0 47 -2 50 -25 50 -20 0 -25 5
-25 25 0 20 -5 25 -25 25 -18 0 -25 5 -25 20 0 15 -7 20 -25 20 -23 0 -25 3
-25 50 0 47 -2 50 -25 50 -20 0 -25 5 -25 25 0 20 -5 25 -25 25 -23 0 -25 3
-25 50 0 43 -3 50 -20 50 -15 0 -20 7 -20 25 0 20 -5 25 -25 25 -23 0 -25 4
-25 45 0 41 -2 45 -25 45 -20 0 -25 5 -25 25 0 20 -5 25 -25 25 -23 0 -25 3
-25 50 0 47 -2 50 -25 50 -20 0 -25 5 -25 25 0 20 -5 25 -25 25 -23 0 -25 3
-25 50 0 47 -2 50 -25 50 -23 0 -25 4 -25 45 0 41 -2 45 -25 45 -20 0 -25 5
-25 25 0 18 -5 25 -20 25 -17 0 -20 7 -20 50 0 47 -2 50 -25 50 -23 0 -25 3
-25 50 0 47 -2 50 -25 50 -18 0 -25 5 -25 20 0 15 -7 20 -25 20 -23 0 -25 3
-25 50 0 47 -2 50 -25 50 -20 0 -25 5 -25 25 0 20 -5 25 -25 25 -20 0 -25 5
-25 25 0 20 -5 25 -25 25 -20 0 -25 5 -25 25 0 18 -5 25 -20 25 -15 0 -20 7
-20 25 0 20 -5 25 -25 25 -20 0 -25 5 -25 25 0 20 -5 25 -25 25 -18 0 -25 5
-25 20 0 15 -7 20 -25 20 -20 0 -25 5 -25 25 0 20 -5 25 -25 25 -20 0 -25 5
-25 25 0 23 -3 25 -50 25 -47 0 -50 2 -50 25 0 23 -4 25 -45 25 -41 0 -45 2
-45 25 0 20 -5 25 -25 25 -20 0 -25 5 -25 25 0 23 -3 25 -50 25 -47 0 -50 2
-50 25 0 23 -3 25 -50 25 -43 0 -50 3 -50 20 0 17 -7 20 -45 20 -41 0 -45 2
-45 25 0 20 -5 25 -25 25 -20 0 -25 5 -25 25 0 24 -2 25 -75 25 -73 0 -75 1
-75 25 0 23 -3 25 -50 25 -47 0 -50 2 -50 25 0 24 -2 25 -70 25 -68 0 -70 1
-70 25 0 23 -3 25 -50 25 -47 0 -50 2 -50 25 0 23 -3 25 -50 25 -47 0 -50 2
-50 25 0 20 -5 25 -25 25 -18 0 -25 5 -25 20 0 13 -7 20 -20 20 -18 0 -20 7
-20 75 0 73 -1 75 -25 75 -25 0 -25 0 -25 95 0 95 0 95 -25 95 -24 0 -25 2
-25 75 0 73 -1 75 -25 75 -24 0 -25 2 -25 75 0 73 -1 75 -25 75 -24 0 -25 2
-25 70 0 68 -1 70 -25 70 -23 0 -25 3 -25 50 0 47 -2 50 -25 50 -23 0 -25 3
-25 50 0 47 -2 50 -25 50 -23 0 -25 4 -25 45 0 38 -3 45 -20 45 -15 0 -20 7
-20 25 0 20 -5 25 -25 25 -20 0 -25 5 -25 25 0 20 -5 25 -25 25 -20 0 -25 5
-25 25 0 20 -5 25 -25 25 -20 0 -25 5 -25 25 0 24 -2 25 -75 25 -73 0 -75 -1
-75 -25 0 -23 -4 -25 -45 -25 -41 0 -45 -2 -45 -25 0 -23 -3 -25 -50 -25 -47
0 -50 -2 -50 -25 0 -20 -5 -25 -25 -25 -20 0 -25 -5 -25 -25 0 -20 -5 -25 -25
-25 -18 0 -25 -5 -25 -20 0 -15 -7 -20 -25 -20 -20 0 -25 -5 -25 -25 0 -20 -5
-25 -25 -25 -20 0 -25 -5 -25 -25 0 -18 -5 -25 -20 -25 -15 0 -20 -7 -20 -25
0 -20 -5 -25 -25 -25 -20 0 -25 -5 -25 -25 0 -20 -5 -25 -25 -25 -20 0 -25 -5
-25 -25 0 -20 -5 -25 -25 -25 -20 0 -25 -5 -25 -25 0 -20 -5 -25 -25 -25 -18
0 -25 -5 -25 -20 0 -15 -7 -20 -25 -20 -20 0 -25 -5 -25 -25 0 -20 -5 -25 -25
-25 -20 0 -25 -5 -25 -25 0 -18 -5 -25 -20 -25 -17 0 -20 -7 -20 -50 0 -47 -2
-50 -25 -50 -20 0 -25 -5 -25 -25 0 -20 -5 -25 -25 -25 -20 0 -25 -5 -25 -25
0 -20 -5 -25 -25 -25 -23 0 -25 -4 -25 -45 0 -41 -2 -45 -25 -45 -20 0 -25 -5
-25 -25 0 -20 -5 -25 -25 -25 -23 0 -25 -3 -25 -50 0 -47 -2 -50 -25 -50 -23
0 -25 -3 -25 -50 0 -47 -2 -50 -25 -50 -20 0 -25 -5 -25 -25 0 -18 -5 -25 -20
-25 -17 0 -20 -7 -20 -45 0 -41 -2 -45 -25 -45 -23 0 -25 -3 -25 -50 0 -47 -2
-50 -25 -50 -23 0 -25 -3 -25 -50 0 -47 -2 -50 -25 -50 -24 0 -25 -2 -25 -70
0 -68 -1 -70 -25 -70 -24 0 -25 -2 -25 -75 0 -73 -1 -75 -25 -75 -24 0 -25 -2
-25 -75 0 -73 -1 -75 -25 -75 -24 0 -25 -2 -25 -70 0 -63 -2 -70 -20 -70 -18
0 -20 -7 -20 -75 0 -73 -1 -75 -25 -75 -23 0 -25 -3 -25 -50 0 -47 -2 -50 -25
-50 -23 0 -25 -4 -25 -45 0 -41 -2 -45 -25 -45 -20 0 -25 -5 -25 -25 0 -20 -5
-25 -25 -25 -23 0 -25 -3 -25 -50 0 -47 -2 -50 -25 -50 -20 0 -25 -5 -25 -25
0 -20 -5 -25 -25 -25 -23 0 -25 -4 -25 -45 l0 -45 -45 0 -45 0 0 -50 0 -50
-50 0 c-47 0 -50 -2 -50 -25 0 -20 -5 -25 -25 -25 -20 0 -25 -5 -25 -25 0 -20
-5 -25 -25 -25 -20 0 -25 -5 -25 -25 0 -20 -5 -25 -25 -25 -20 0 -25 -5 -25
-25 0 -23 -4 -25 -45 -25 -41 0 -45 -2 -45 -25 0 -20 -5 -25 -25 -25 -18 0
-25 -5 -25 -20 0 -15 -7 -20 -25 -20 -20 0 -25 -5 -25 -25 0 -23 -3 -25 -50
-25 -47 0 -50 -2 -50 -25 0 -23 -3 -25 -50 -25 -47 0 -50 -2 -50 -25 0 -20 -5
-25 -25 -25 -20 0 -25 -5 -25 -25 0 -23 -4 -25 -45 -25 -41 0 -45 -2 -45 -25
0 -20 -5 -25 -25 -25 l-25 0 0 100 0 100 25 0 25 0 0 120 0 120 25 0 25 0 0
100 c0 93 1 100 20 100 19 0 20 7 20 95 0 95 0 95 25 95 24 0 25 2 25 75 0 73
1 75 25 75 24 0 25 2 25 70 0 68 1 70 25 70 24 0 25 2 25 75 0 73 1 75 25 75
23 0 25 3 25 50 0 47 2 50 25 50 24 0 25 2 25 70 0 68 1 70 25 70 23 0 25 3
25 50 0 47 2 50 25 50 23 0 25 3 25 50 0 43 3 50 20 50 17 0 20 7 20 45 0 41
2 45 25 45 20 0 25 5 25 25 0 20 5 25 25 25 23 0 25 3 25 50 0 47 2 50 25 50
23 0 25 3 25 50 0 47 2 50 25 50 20 0 25 5 25 25 0 20 5 25 25 25 23 0 25 4
25 45 0 41 2 45 25 45 23 0 25 3 25 50 0 43 3 50 20 50 15 0 20 7 20 25 0 20
5 25 25 25 20 0 25 5 25 25 0 20 5 25 25 25 23 0 25 4 25 45 0 41 2 45 25 45
20 0 25 5 25 25 0 20 5 25 25 25 20 0 25 5 25 25 0 20 5 25 25 25 20 0 25 5
25 25 0 20 5 25 25 25 23 0 25 3 25 50 0 47 2 50 25 50 20 0 25 5 25 25 0 18
5 25 20 25 15 0 20 7 20 25 0 20 5 25 25 25 18 0 25 5 25 20 0 15 7 20 25 20
20 0 25 5 25 25 0 20 5 25 25 25 20 0 25 5 25 25 0 20 5 25 25 25 20 0 25 5
25 25 0 20 5 25 25 25 20 0 25 5 25 25 0 20 5 25 25 25 20 0 25 5 25 25 0 18
5 25 20 25 15 0 20 7 20 25 0 20 5 25 25 25 18 0 25 5 25 20 0 17 7 20 50 20
47 0 50 2 50 25 0 20 5 25 25 25 20 0 25 5 25 25 0 20 5 25 25 25 20 0 25 5
25 25 0 20 5 25 25 25 20 0 25 5 25 25 0 20 5 25 25 25 20 0 25 5 25 25 0 23
4 25 45 25 41 0 45 2 45 25 0 20 5 25 25 25 20 0 25 5 25 25 0 20 5 25 25 25
18 0 25 5 25 20 0 17 7 20 50 20 47 0 50 2 50 25 0 23 4 25 45 25 41 0 45 2
45 25 0 20 5 25 25 25 20 0 25 5 25 25 0 23 3 25 50 25 47 0 50 2 50 25 0 23
3 25 50 25 47 0 50 2 50 25 0 20 5 25 25 25 20 0 25 5 25 25 0 23 4 25 45 25
38 0 45 3 45 20 0 17 7 20 50 20 47 0 50 2 50 25 0 23 3 25 50 25 47 0 50 2
50 25 0 24 2 25 70 25 68 0 70 1 70 25 0 23 3 25 50 25 47 0 50 2 50 25 0 24
2 25 75 25 73 0 75 1 75 25 0 24 2 25 70 25 68 0 70 1 70 25 0 24 2 25 75 25
73 0 75 1 75 25 0 24 2 25 75 25 68 0 75 2 75 20 0 19 7 20 120 20 l120 0 0
25 0 25 120 0 120 0 0 25 0 25 220 0 220 0 0 25 0 25 390 0 390 0 0 -25z
m-440 -4620 c0 -23 3 -25 50 -25 47 0 50 -2 50 -25 0 -20 5 -25 25 -25 20 0
25 -5 25 -25 0 -20 5 -25 25 -25 20 0 25 -5 25 -25 0 -18 5 -25 20 -25 17 0
20 -7 20 -50 0 -47 2 -50 25 -50 25 0 25 0 25 -95 0 -95 0 -95 -25 -95 -20 0
-25 -5 -25 -25 0 -23 -4 -25 -45 -25 -41 0 -45 2 -45 25 l0 25 -125 0 -125 0
0 25 c0 24 -2 25 -70 25 -68 0 -70 1 -70 25 0 23 -3 25 -50 25 -47 0 -50 2
-50 25 0 23 -3 25 -50 25 -43 0 -50 3 -50 20 0 17 -7 20 -45 20 -41 0 -45 2
-45 25 0 23 -3 25 -50 25 -47 0 -50 2 -50 25 0 23 -3 25 -50 25 -47 0 -50 2
-50 25 0 24 -2 25 -70 25 l-70 0 0 50 0 50 95 0 c95 0 95 0 95 -25 0 -20 5
-25 25 -25 20 0 25 5 25 25 l0 25 195 0 195 0 0 25 0 25 120 0 120 0 0 -25z
m-3600 -200 l0 -25 120 0 120 0 0 -25 0 -25 125 0 c118 0 125 -1 125 -20 0
-19 7 -20 95 -20 95 0 95 0 95 -25 0 -24 2 -25 75 -25 73 0 75 -1 75 -25 0
-24 2 -25 70 -25 68 0 70 -1 70 -25 0 -24 2 -25 75 -25 73 0 75 -1 75 -25 0
-25 0 -25 95 -25 95 0 95 0 95 -25 0 -24 2 -25 75 -25 73 0 75 -1 75 -25 0
-24 2 -25 75 -25 68 0 75 -2 75 -20 0 -18 7 -20 70 -20 68 0 70 -1 70 -25 0
-24 2 -25 75 -25 73 0 75 -1 75 -25 0 -25 0 -25 95 -25 95 0 95 0 95 -25 l0
-25 100 0 100 0 0 -25 c0 -24 2 -25 70 -25 68 0 70 -1 70 -25 l0 -25 125 0
125 0 0 -25 c0 -25 0 -25 95 -25 95 0 95 0 95 -25 l0 -25 145 0 c138 0 145 -1
145 -20 0 -19 7 -20 195 -20 l195 0 0 -25 0 -25 270 0 270 0 0 -25 0 -25 -245
0 -245 0 0 -25 0 -25 -340 0 -340 0 0 25 0 25 -245 0 -245 0 0 25 0 25 -145 0
-145 0 0 25 0 25 -120 0 c-113 0 -120 1 -120 20 0 19 -7 20 -100 20 l-100 0 0
25 c0 25 0 25 -95 25 -95 0 -95 0 -95 25 0 24 -2 25 -75 25 -73 0 -75 1 -75
25 0 25 0 25 -95 25 -95 0 -95 0 -95 25 0 24 -2 25 -75 25 -73 0 -75 1 -75 25
0 24 -2 25 -70 25 -68 0 -70 1 -70 25 l0 25 -100 0 -100 0 0 25 c0 25 0 25
-95 25 -88 0 -95 1 -95 20 0 19 -7 20 -125 20 l-125 0 0 25 0 25 -145 0 -145
0 0 25 0 25 -340 0 -340 0 0 -25 0 -25 -145 0 -145 0 0 -25 0 -25 -100 0 c-93
0 -100 -1 -100 -20 0 -18 -7 -20 -70 -20 -68 0 -70 -1 -70 -25 0 -23 -3 -25
-50 -25 l-50 0 0 195 0 195 50 0 c43 0 50 3 50 20 0 19 7 20 95 20 95 0 95 0
95 25 l0 25 100 0 100 0 0 25 0 25 485 0 485 0 0 -25z m1220 -1360 l0 -25 215
0 215 0 0 -25 0 -25 125 0 125 0 0 -25 c0 -25 0 -25 95 -25 95 0 95 0 95 -25
l0 -25 100 0 c93 0 100 -1 100 -20 0 -17 7 -20 45 -20 41 0 45 -2 45 -25 0
-24 2 -25 75 -25 73 0 75 -1 75 -25 0 -24 2 -25 75 -25 73 0 75 -1 75 -25 0
-23 4 -25 45 -25 41 0 45 -2 45 -25 0 -24 2 -25 75 -25 73 0 75 -1 75 -25 0
-23 3 -25 50 -25 47 0 50 -2 50 -25 0 -23 4 -25 45 -25 38 0 45 -3 45 -20 0
-18 7 -20 75 -20 73 0 75 -1 75 -25 0 -23 3 -25 50 -25 47 0 50 -2 50 -25 0
-23 3 -25 50 -25 47 0 50 -2 50 -25 0 -23 4 -25 45 -25 41 0 45 -2 45 -25 0
-23 3 -25 50 -25 47 0 50 -2 50 -25 0 -23 3 -25 50 -25 47 0 50 -2 50 -25 0
-24 2 -25 70 -25 68 0 70 -1 70 -25 0 -23 3 -25 50 -25 43 0 50 -3 50 -20 0
-17 7 -20 50 -20 47 0 50 -2 50 -25 0 -24 2 -25 70 -25 68 0 70 -1 70 -25 0
-23 3 -25 50 -25 47 0 50 -2 50 -25 0 -24 2 -25 75 -25 73 0 75 -1 75 -25 0
-23 4 -25 45 -25 41 0 45 -2 45 -25 0 -24 2 -25 75 -25 73 0 75 -1 75 -25 0
-24 2 -25 75 -25 68 0 75 -2 75 -20 0 -18 7 -20 70 -20 68 0 70 -1 70 -25 0
-24 2 -25 75 -25 73 0 75 -1 75 -25 0 -25 0 -25 95 -25 95 0 95 0 95 -25 l0
-25 100 0 100 0 0 -25 0 -25 120 0 120 0 0 -25 0 -25 -195 0 -195 0 0 25 c0
25 0 25 -95 25 -95 0 -95 0 -95 25 l0 25 -125 0 -125 0 0 25 c0 24 -2 25 -70
25 -68 0 -70 1 -70 25 l0 25 -100 0 -100 0 0 25 c0 24 -2 25 -70 25 -63 0 -70
2 -70 20 0 18 -7 20 -75 20 -73 0 -75 1 -75 25 0 23 -3 25 -50 25 -47 0 -50 2
-50 25 0 25 0 25 -95 25 -95 0 -95 0 -95 25 0 23 -3 25 -50 25 -47 0 -50 2
-50 25 0 24 -2 25 -70 25 -68 0 -70 1 -70 25 0 24 -2 25 -75 25 -73 0 -75 1
-75 25 0 23 -3 25 -50 25 -43 0 -50 3 -50 20 0 18 -7 20 -70 20 -68 0 -70 1
-70 25 0 24 -2 25 -75 25 -73 0 -75 1 -75 25 0 23 -3 25 -50 25 -47 0 -50 2
-50 25 0 24 -2 25 -70 25 -68 0 -70 1 -70 25 0 24 -2 25 -75 25 -73 0 -75 1
-75 25 0 23 -3 25 -50 25 -47 0 -50 2 -50 25 0 24 -2 25 -70 25 -68 0 -70 1
-70 25 0 24 -2 25 -75 25 -68 0 -75 2 -75 20 0 18 -7 20 -70 20 -68 0 -70 1
-70 25 0 24 -2 25 -75 25 -73 0 -75 1 -75 25 0 24 -2 25 -75 25 -73 0 -75 1
-75 25 0 25 0 25 -95 25 -95 0 -95 0 -95 25 l0 25 -120 0 -120 0 0 25 0 25
-465 0 -465 0 0 -25 c0 -25 0 -25 -95 -25 -95 0 -95 0 -95 -25 0 -24 -2 -25
-75 -25 -73 0 -75 -1 -75 -25 0 -20 -5 -25 -25 -25 -20 0 -25 -5 -25 -25 0
-23 -3 -25 -50 -25 -47 0 -50 -2 -50 -25 0 -23 -4 -25 -45 -25 -38 0 -45 -3
-45 -20 0 -15 -7 -20 -25 -20 -20 0 -25 -5 -25 -25 0 -23 -3 -25 -50 -25 -47
0 -50 -2 -50 -25 0 -20 -5 -25 -25 -25 -20 0 -25 -5 -25 -25 0 -20 -5 -25 -25
-25 -20 0 -25 -5 -25 -25 0 -18 -5 -25 -20 -25 -15 0 -20 -7 -20 -25 0 -20 -5
-25 -25 -25 -20 0 -25 -5 -25 -25 0 -20 -5 -25 -25 -25 -20 0 -25 -5 -25 -25
0 -20 -5 -25 -25 -25 -18 0 -25 -5 -25 -20 0 -17 -7 -20 -50 -20 -47 0 -50 -2
-50 -25 0 -20 -5 -25 -25 -25 -20 0 -25 -5 -25 -25 0 -20 -5 -25 -25 -25 -23
0 -25 -3 -25 -50 0 -43 -3 -50 -20 -50 -15 0 -20 -7 -20 -25 0 -20 -5 -25 -25
-25 -20 0 -25 -5 -25 -25 0 -20 -5 -25 -25 -25 -18 0 -25 -5 -25 -20 0 -15 -7
-20 -25 -20 -20 0 -25 -5 -25 -25 0 -20 -5 -25 -25 -25 -20 0 -25 -5 -25 -25
0 -20 -5 -25 -25 -25 -23 0 -25 3 -25 50 0 47 -2 50 -25 50 -23 0 -25 4 -25
45 0 38 -3 45 -20 45 -15 0 -20 7 -20 25 0 20 -5 25 -25 25 -23 0 -25 3 -25
50 0 47 2 50 25 50 20 0 25 5 25 25 0 18 5 25 20 25 15 0 20 7 20 25 0 20 5
25 25 25 18 0 25 5 25 20 0 15 7 20 25 20 20 0 25 5 25 25 0 20 5 25 25 25 20
0 25 5 25 25 0 20 5 25 25 25 20 0 25 5 25 25 0 20 5 25 25 25 20 0 25 5 25
25 0 20 5 25 25 25 20 0 25 5 25 25 0 18 5 25 20 25 15 0 20 7 20 25 0 20 5
25 25 25 20 0 25 5 25 25 0 20 5 25 25 25 18 0 25 5 25 20 0 17 7 20 50 20 47
0 50 2 50 25 0 20 5 25 25 25 20 0 25 5 25 25 0 23 3 25 50 25 47 0 50 2 50
25 0 18 5 25 20 25 15 0 20 7 20 25 0 23 3 25 50 25 47 0 50 2 50 25 0 23 3
25 50 25 47 0 50 2 50 25 0 23 3 25 50 25 43 0 50 3 50 20 0 18 7 20 70 20 68
0 70 1 70 25 0 24 2 25 75 25 73 0 75 1 75 25 0 25 0 25 95 25 95 0 95 0 95
25 l0 25 220 0 220 0 0 25 c0 24 2 25 75 25 73 0 75 -1 75 -25z"/>
</g>
</svg>
