<svg xmlns="http://www.w3.org/2000/svg" xmlns:xlink="http://www.w3.org/1999/xlink" width="1920" zoomAndPan="magnify" viewBox="0 0 1440 187" height="auto" preserveAspectRatio="xMidYMid meet" version="1.0"><defs><g/><clipPath id="26824bebfd"><path d="M 1225 0 L 1438.835938 0 L 1438.835938 186.675781 L 1225 186.675781 Z M 1225 0 " clip-rule="nonzero"/></clipPath><clipPath id="c76577faff"><path d="M 1318.445312 186.675781 L 1438.835938 186.675781 L 1438.835938 0 L 1318.445312 0 L 1225.109375 93.339844 Z M 1318.445312 186.675781 " clip-rule="nonzero"/></clipPath><clipPath id="1742a7cb1a"><path d="M 1066.648438 0 L 1440 0 L 1440 186.675781 L 1066.648438 186.675781 Z M 1066.648438 0 " clip-rule="nonzero"/></clipPath><clipPath id="a49f6d2838"><path d="M 1066.648438 0 L 1346.660156 0 L 1440 93.339844 L 1346.660156 186.675781 L 1066.648438 186.675781 L 1159.984375 93.339844 Z M 1066.648438 0 " clip-rule="nonzero"/></clipPath><clipPath id="d19f5b453d"><path d="M 0 0.832031 L 373.351562 0.832031 L 373.351562 187.507812 L 0 187.507812 Z M 0 0.832031 " clip-rule="nonzero"/></clipPath><clipPath id="57d1cf1ac5"><path d="M 280.015625 0.832031 L 0 0.832031 L 0 187.507812 L 280.015625 187.507812 L 373.351562 94.167969 Z M 280.015625 0.832031 " clip-rule="nonzero"/></clipPath><clipPath id="b5a9a31ec8"><path d="M 321.152344 0 L 746 0 L 746 186.675781 L 321.152344 186.675781 Z M 321.152344 0 " clip-rule="nonzero"/></clipPath><clipPath id="01b5326e59"><path d="M 321.152344 0 L 652.570312 0 L 745.90625 93.339844 L 652.570312 186.675781 L 321.152344 186.675781 L 414.488281 93.339844 Z M 321.152344 0 " clip-rule="nonzero"/></clipPath><clipPath id="a9c514c72b"><path d="M 695.300781 0 L 1120 0 L 1120 186.675781 L 695.300781 186.675781 Z M 695.300781 0 " clip-rule="nonzero"/></clipPath><clipPath id="a29812bcf5"><path d="M 695.300781 0 L 1026.71875 0 L 1120.054688 93.339844 L 1026.71875 186.675781 L 695.300781 186.675781 L 788.636719 93.339844 Z M 695.300781 0 " clip-rule="nonzero"/></clipPath></defs><g clip-path="url(#26824bebfd)"><g clip-path="url(#c76577faff)"><path fill="#2bd353" d="M 1438.835938 186.675781 L 1225.179688 186.675781 L 1225.179688 0 L 1438.835938 0 Z M 1438.835938 186.675781 " fill-opacity="1" fill-rule="nonzero"/></g></g><g clip-path="url(#1742a7cb1a)"><g clip-path="url(#a49f6d2838)"><path fill="#2bd353" d="M 1066.648438 0 L 1440 0 L 1440 186.675781 L 1066.648438 186.675781 Z M 1066.648438 0 " fill-opacity="1" fill-rule="nonzero"/></g></g><g fill="#000000" fill-opacity="1"><g transform="translate(1202.51889, 119.215515)"><g><path d="M 37.515625 -50.734375 L 37.515625 -40.84375 L 16.84375 -40.84375 L 16.84375 -30.140625 L 32.3125 -30.140625 L 32.3125 -20.53125 L 16.84375 -20.53125 L 16.84375 0 L 4.484375 0 L 4.484375 -50.734375 Z M 37.515625 -50.734375 "/></g></g></g><g fill="#000000" fill-opacity="1"><g transform="translate(1242.059437, 119.215515)"><g><path d="M 10.703125 -44.53125 C 8.523438 -44.53125 6.75 -45.164062 5.375 -46.4375 C 4.007812 -47.71875 3.328125 -49.296875 3.328125 -51.171875 C 3.328125 -53.097656 4.007812 -54.695312 5.375 -55.96875 C 6.75 -57.25 8.523438 -57.890625 10.703125 -57.890625 C 12.816406 -57.890625 14.5625 -57.25 15.9375 -55.96875 C 17.3125 -54.695312 18 -53.097656 18 -51.171875 C 18 -49.296875 17.3125 -47.71875 15.9375 -46.4375 C 14.5625 -45.164062 12.816406 -44.53125 10.703125 -44.53125 Z M 16.84375 -40.328125 L 16.84375 0 L 4.484375 0 L 4.484375 -40.328125 Z M 16.84375 -40.328125 "/></g></g></g><g fill="#000000" fill-opacity="1"><g transform="translate(1263.383865, 119.215515)"><g><path d="M 29.0625 -40.765625 C 33.78125 -40.765625 37.546875 -39.234375 40.359375 -36.171875 C 43.179688 -33.117188 44.59375 -28.914062 44.59375 -23.5625 L 44.59375 0 L 32.3125 0 L 32.3125 -21.90625 C 32.3125 -24.601562 31.613281 -26.695312 30.21875 -28.1875 C 28.820312 -29.6875 26.941406 -30.4375 24.578125 -30.4375 C 22.210938 -30.4375 20.332031 -29.6875 18.9375 -28.1875 C 17.539062 -26.695312 16.84375 -24.601562 16.84375 -21.90625 L 16.84375 0 L 4.484375 0 L 4.484375 -40.328125 L 16.84375 -40.328125 L 16.84375 -34.984375 C 18.09375 -36.765625 19.773438 -38.171875 21.890625 -39.203125 C 24.015625 -40.242188 26.40625 -40.765625 29.0625 -40.765625 Z M 29.0625 -40.765625 "/></g></g></g><g fill="#000000" fill-opacity="1"><g transform="translate(1312.104762, 119.215515)"><g><path d="M 2.03125 -20.234375 C 2.03125 -24.378906 2.8125 -28.015625 4.375 -31.140625 C 5.9375 -34.273438 8.066406 -36.6875 10.765625 -38.375 C 13.460938 -40.0625 16.476562 -40.90625 19.8125 -40.90625 C 22.644531 -40.90625 25.132812 -40.328125 27.28125 -39.171875 C 29.425781 -38.015625 31.078125 -36.5 32.234375 -34.625 L 32.234375 -40.328125 L 44.59375 -40.328125 L 44.59375 0 L 32.234375 0 L 32.234375 -5.703125 C 31.035156 -3.828125 29.363281 -2.3125 27.21875 -1.15625 C 25.070312 0 22.578125 0.578125 19.734375 0.578125 C 16.453125 0.578125 13.460938 -0.273438 10.765625 -1.984375 C 8.066406 -3.691406 5.9375 -6.125 4.375 -9.28125 C 2.8125 -12.4375 2.03125 -16.085938 2.03125 -20.234375 Z M 32.234375 -20.171875 C 32.234375 -23.253906 31.378906 -25.6875 29.671875 -27.46875 C 27.960938 -29.25 25.878906 -30.140625 23.421875 -30.140625 C 20.960938 -30.140625 18.875 -29.257812 17.15625 -27.5 C 15.445312 -25.738281 14.59375 -23.316406 14.59375 -20.234375 C 14.59375 -17.148438 15.445312 -14.703125 17.15625 -12.890625 C 18.875 -11.085938 20.960938 -10.1875 23.421875 -10.1875 C 25.878906 -10.1875 27.960938 -11.078125 29.671875 -12.859375 C 31.378906 -14.648438 32.234375 -17.085938 32.234375 -20.171875 Z M 32.234375 -20.171875 "/></g></g></g><g fill="#000000" fill-opacity="1"><g transform="translate(1361.18709, 119.215515)"><g><path d="M 16.84375 -53.484375 L 16.84375 0 L 4.484375 0 L 4.484375 -53.484375 Z M 16.84375 -53.484375 "/></g></g></g><g clip-path="url(#d19f5b453d)"><g clip-path="url(#57d1cf1ac5)"><path fill="#ffa31a" d="M 0 0.832031 L 373.351562 0.832031 L 373.351562 187.507812 L 0 187.507812 Z M 0 0.832031 " fill-opacity="1" fill-rule="nonzero"/></g></g><g fill="#000000" fill-opacity="1"><g transform="translate(51.367453, 118.38489)"><g><path d="M 22.84375 0.5 C 19.132812 0.5 15.804688 -0.0976562 12.859375 -1.296875 C 9.921875 -2.503906 7.570312 -4.285156 5.8125 -6.640625 C 4.0625 -9.003906 3.132812 -11.847656 3.03125 -15.171875 L 16.1875 -15.171875 C 16.382812 -13.296875 17.035156 -11.863281 18.140625 -10.875 C 19.253906 -9.882812 20.703125 -9.390625 22.484375 -9.390625 C 24.304688 -9.390625 25.75 -9.8125 26.8125 -10.65625 C 27.875 -11.5 28.40625 -12.671875 28.40625 -14.171875 C 28.40625 -15.421875 27.984375 -16.453125 27.140625 -17.265625 C 26.296875 -18.085938 25.257812 -18.765625 24.03125 -19.296875 C 22.800781 -19.828125 21.054688 -20.429688 18.796875 -21.109375 C 15.515625 -22.117188 12.835938 -23.128906 10.765625 -24.140625 C 8.691406 -25.148438 6.910156 -26.644531 5.421875 -28.625 C 3.929688 -30.601562 3.1875 -33.179688 3.1875 -36.359375 C 3.1875 -41.078125 4.894531 -44.773438 8.3125 -47.453125 C 11.726562 -50.128906 16.1875 -51.46875 21.6875 -51.46875 C 27.269531 -51.46875 31.769531 -50.128906 35.1875 -47.453125 C 38.613281 -44.773438 40.445312 -41.050781 40.6875 -36.28125 L 27.328125 -36.28125 C 27.222656 -37.925781 26.617188 -39.21875 25.515625 -40.15625 C 24.410156 -41.09375 22.988281 -41.5625 21.25 -41.5625 C 19.757812 -41.5625 18.554688 -41.160156 17.640625 -40.359375 C 16.722656 -39.566406 16.265625 -38.425781 16.265625 -36.9375 C 16.265625 -35.300781 17.035156 -34.023438 18.578125 -33.109375 C 20.117188 -32.191406 22.523438 -31.203125 25.796875 -30.140625 C 29.078125 -29.035156 31.738281 -27.972656 33.78125 -26.953125 C 35.832031 -25.941406 37.601562 -24.472656 39.09375 -22.546875 C 40.59375 -20.617188 41.34375 -18.140625 41.34375 -15.109375 C 41.34375 -12.210938 40.609375 -9.582031 39.140625 -7.21875 C 37.671875 -4.863281 35.535156 -2.988281 32.734375 -1.59375 C 29.941406 -0.195312 26.644531 0.5 22.84375 0.5 Z M 22.84375 0.5 "/></g></g></g><g fill="#000000" fill-opacity="1"><g transform="translate(95.823465, 118.38489)"><g><path d="M 26.96875 -10.484375 L 26.96875 0 L 20.671875 0 C 16.191406 0 12.695312 -1.09375 10.1875 -3.28125 C 7.6875 -5.476562 6.4375 -9.054688 6.4375 -14.015625 L 6.4375 -30.0625 L 1.515625 -30.0625 L 1.515625 -40.328125 L 6.4375 -40.328125 L 6.4375 -50.15625 L 18.796875 -50.15625 L 18.796875 -40.328125 L 26.890625 -40.328125 L 26.890625 -30.0625 L 18.796875 -30.0625 L 18.796875 -13.875 C 18.796875 -12.675781 19.082031 -11.8125 19.65625 -11.28125 C 20.238281 -10.75 21.203125 -10.484375 22.546875 -10.484375 Z M 26.96875 -10.484375 "/></g></g></g><g fill="#000000" fill-opacity="1"><g transform="translate(125.17166, 118.38489)"><g><path d="M 42.5 -20.8125 C 42.5 -19.65625 42.425781 -18.453125 42.28125 -17.203125 L 14.3125 -17.203125 C 14.5 -14.691406 15.300781 -12.773438 16.71875 -11.453125 C 18.144531 -10.128906 19.894531 -9.46875 21.96875 -9.46875 C 25.050781 -9.46875 27.195312 -10.769531 28.40625 -13.375 L 41.5625 -13.375 C 40.882812 -10.71875 39.664062 -8.328125 37.90625 -6.203125 C 36.144531 -4.085938 33.941406 -2.425781 31.296875 -1.21875 C 28.648438 -0.0195312 25.6875 0.578125 22.40625 0.578125 C 18.457031 0.578125 14.941406 -0.265625 11.859375 -1.953125 C 8.773438 -3.640625 6.363281 -6.046875 4.625 -9.171875 C 2.894531 -12.304688 2.03125 -15.972656 2.03125 -20.171875 C 2.03125 -24.359375 2.882812 -28.015625 4.59375 -31.140625 C 6.300781 -34.273438 8.695312 -36.6875 11.78125 -38.375 C 14.863281 -40.0625 18.40625 -40.90625 22.40625 -40.90625 C 26.3125 -40.90625 29.78125 -40.085938 32.8125 -38.453125 C 35.851562 -36.816406 38.226562 -34.476562 39.9375 -31.4375 C 41.644531 -28.40625 42.5 -24.863281 42.5 -20.8125 Z M 29.859375 -24.0625 C 29.859375 -26.1875 29.132812 -27.875 27.6875 -29.125 C 26.238281 -30.382812 24.429688 -31.015625 22.265625 -31.015625 C 20.191406 -31.015625 18.441406 -30.410156 17.015625 -29.203125 C 15.597656 -27.992188 14.722656 -26.28125 14.390625 -24.0625 Z M 29.859375 -24.0625 "/></g></g></g><g fill="#000000" fill-opacity="1"><g transform="translate(169.699954, 118.38489)"><g><path d="M 16.84375 -34.625 C 18.050781 -36.5 19.710938 -38.015625 21.828125 -39.171875 C 23.953125 -40.328125 26.4375 -40.90625 29.28125 -40.90625 C 32.601562 -40.90625 35.613281 -40.0625 38.3125 -38.375 C 41.007812 -36.6875 43.140625 -34.273438 44.703125 -31.140625 C 46.273438 -28.015625 47.0625 -24.378906 47.0625 -20.234375 C 47.0625 -16.085938 46.273438 -12.4375 44.703125 -9.28125 C 43.140625 -6.125 41.007812 -3.691406 38.3125 -1.984375 C 35.613281 -0.273438 32.601562 0.578125 29.28125 0.578125 C 26.476562 0.578125 24.003906 0 21.859375 -1.15625 C 19.722656 -2.3125 18.050781 -3.804688 16.84375 -5.640625 L 16.84375 19.234375 L 4.484375 19.234375 L 4.484375 -40.328125 L 16.84375 -40.328125 Z M 34.484375 -20.234375 C 34.484375 -23.316406 33.625 -25.738281 31.90625 -27.5 C 30.195312 -29.257812 28.09375 -30.140625 25.59375 -30.140625 C 23.132812 -30.140625 21.046875 -29.25 19.328125 -27.46875 C 17.617188 -25.6875 16.765625 -23.253906 16.765625 -20.171875 C 16.765625 -17.085938 17.617188 -14.648438 19.328125 -12.859375 C 21.046875 -11.078125 23.132812 -10.1875 25.59375 -10.1875 C 28.050781 -10.1875 30.144531 -11.085938 31.875 -12.890625 C 33.613281 -14.703125 34.484375 -17.148438 34.484375 -20.234375 Z M 34.484375 -20.234375 "/></g></g></g><g fill="#000000" fill-opacity="1"><g transform="translate(218.782273, 118.38489)"><g/></g></g><g fill="#000000" fill-opacity="1"><g transform="translate(234.106945, 118.38489)"><g><path d="M 1.953125 -41.265625 L 1.953125 -52.765625 L 21.96875 -52.765625 L 21.96875 0 L 9.109375 0 L 9.109375 -41.265625 Z M 1.953125 -41.265625 "/></g></g></g><g clip-path="url(#b5a9a31ec8)"><g clip-path="url(#01b5326e59)"><path fill="#ffa31a" d="M 321.152344 0 L 745.546875 0 L 745.546875 186.675781 L 321.152344 186.675781 Z M 321.152344 0 " fill-opacity="1" fill-rule="nonzero"/></g></g><g fill="#000000" fill-opacity="1"><g transform="translate(441.102368, 118.385125)"><g><path d="M 22.84375 0.5 C 19.132812 0.5 15.804688 -0.0976562 12.859375 -1.296875 C 9.921875 -2.503906 7.570312 -4.285156 5.8125 -6.640625 C 4.0625 -9.003906 3.132812 -11.847656 3.03125 -15.171875 L 16.1875 -15.171875 C 16.382812 -13.296875 17.035156 -11.863281 18.140625 -10.875 C 19.253906 -9.882812 20.703125 -9.390625 22.484375 -9.390625 C 24.304688 -9.390625 25.75 -9.8125 26.8125 -10.65625 C 27.875 -11.5 28.40625 -12.671875 28.40625 -14.171875 C 28.40625 -15.421875 27.984375 -16.453125 27.140625 -17.265625 C 26.296875 -18.085938 25.257812 -18.765625 24.03125 -19.296875 C 22.800781 -19.828125 21.054688 -20.429688 18.796875 -21.109375 C 15.515625 -22.117188 12.835938 -23.128906 10.765625 -24.140625 C 8.691406 -25.148438 6.910156 -26.644531 5.421875 -28.625 C 3.929688 -30.601562 3.1875 -33.179688 3.1875 -36.359375 C 3.1875 -41.078125 4.894531 -44.773438 8.3125 -47.453125 C 11.726562 -50.128906 16.1875 -51.46875 21.6875 -51.46875 C 27.269531 -51.46875 31.769531 -50.128906 35.1875 -47.453125 C 38.613281 -44.773438 40.445312 -41.050781 40.6875 -36.28125 L 27.328125 -36.28125 C 27.222656 -37.925781 26.617188 -39.21875 25.515625 -40.15625 C 24.410156 -41.09375 22.988281 -41.5625 21.25 -41.5625 C 19.757812 -41.5625 18.554688 -41.160156 17.640625 -40.359375 C 16.722656 -39.566406 16.265625 -38.425781 16.265625 -36.9375 C 16.265625 -35.300781 17.035156 -34.023438 18.578125 -33.109375 C 20.117188 -32.191406 22.523438 -31.203125 25.796875 -30.140625 C 29.078125 -29.035156 31.738281 -27.972656 33.78125 -26.953125 C 35.832031 -25.941406 37.601562 -24.472656 39.09375 -22.546875 C 40.59375 -20.617188 41.34375 -18.140625 41.34375 -15.109375 C 41.34375 -12.210938 40.609375 -9.582031 39.140625 -7.21875 C 37.671875 -4.863281 35.535156 -2.988281 32.734375 -1.59375 C 29.941406 -0.195312 26.644531 0.5 22.84375 0.5 Z M 22.84375 0.5 "/></g></g></g><g fill="#000000" fill-opacity="1"><g transform="translate(485.558379, 118.385125)"><g><path d="M 26.96875 -10.484375 L 26.96875 0 L 20.671875 0 C 16.191406 0 12.695312 -1.09375 10.1875 -3.28125 C 7.6875 -5.476562 6.4375 -9.054688 6.4375 -14.015625 L 6.4375 -30.0625 L 1.515625 -30.0625 L 1.515625 -40.328125 L 6.4375 -40.328125 L 6.4375 -50.15625 L 18.796875 -50.15625 L 18.796875 -40.328125 L 26.890625 -40.328125 L 26.890625 -30.0625 L 18.796875 -30.0625 L 18.796875 -13.875 C 18.796875 -12.675781 19.082031 -11.8125 19.65625 -11.28125 C 20.238281 -10.75 21.203125 -10.484375 22.546875 -10.484375 Z M 26.96875 -10.484375 "/></g></g></g><g fill="#000000" fill-opacity="1"><g transform="translate(514.906575, 118.385125)"><g><path d="M 42.5 -20.8125 C 42.5 -19.65625 42.425781 -18.453125 42.28125 -17.203125 L 14.3125 -17.203125 C 14.5 -14.691406 15.300781 -12.773438 16.71875 -11.453125 C 18.144531 -10.128906 19.894531 -9.46875 21.96875 -9.46875 C 25.050781 -9.46875 27.195312 -10.769531 28.40625 -13.375 L 41.5625 -13.375 C 40.882812 -10.71875 39.664062 -8.328125 37.90625 -6.203125 C 36.144531 -4.085938 33.941406 -2.425781 31.296875 -1.21875 C 28.648438 -0.0195312 25.6875 0.578125 22.40625 0.578125 C 18.457031 0.578125 14.941406 -0.265625 11.859375 -1.953125 C 8.773438 -3.640625 6.363281 -6.046875 4.625 -9.171875 C 2.894531 -12.304688 2.03125 -15.972656 2.03125 -20.171875 C 2.03125 -24.359375 2.882812 -28.015625 4.59375 -31.140625 C 6.300781 -34.273438 8.695312 -36.6875 11.78125 -38.375 C 14.863281 -40.0625 18.40625 -40.90625 22.40625 -40.90625 C 26.3125 -40.90625 29.78125 -40.085938 32.8125 -38.453125 C 35.851562 -36.816406 38.226562 -34.476562 39.9375 -31.4375 C 41.644531 -28.40625 42.5 -24.863281 42.5 -20.8125 Z M 29.859375 -24.0625 C 29.859375 -26.1875 29.132812 -27.875 27.6875 -29.125 C 26.238281 -30.382812 24.429688 -31.015625 22.265625 -31.015625 C 20.191406 -31.015625 18.441406 -30.410156 17.015625 -29.203125 C 15.597656 -27.992188 14.722656 -26.28125 14.390625 -24.0625 Z M 29.859375 -24.0625 "/></g></g></g><g fill="#000000" fill-opacity="1"><g transform="translate(559.434869, 118.385125)"><g><path d="M 16.84375 -34.625 C 18.050781 -36.5 19.710938 -38.015625 21.828125 -39.171875 C 23.953125 -40.328125 26.4375 -40.90625 29.28125 -40.90625 C 32.601562 -40.90625 35.613281 -40.0625 38.3125 -38.375 C 41.007812 -36.6875 43.140625 -34.273438 44.703125 -31.140625 C 46.273438 -28.015625 47.0625 -24.378906 47.0625 -20.234375 C 47.0625 -16.085938 46.273438 -12.4375 44.703125 -9.28125 C 43.140625 -6.125 41.007812 -3.691406 38.3125 -1.984375 C 35.613281 -0.273438 32.601562 0.578125 29.28125 0.578125 C 26.476562 0.578125 24.003906 0 21.859375 -1.15625 C 19.722656 -2.3125 18.050781 -3.804688 16.84375 -5.640625 L 16.84375 19.234375 L 4.484375 19.234375 L 4.484375 -40.328125 L 16.84375 -40.328125 Z M 34.484375 -20.234375 C 34.484375 -23.316406 33.625 -25.738281 31.90625 -27.5 C 30.195312 -29.257812 28.09375 -30.140625 25.59375 -30.140625 C 23.132812 -30.140625 21.046875 -29.25 19.328125 -27.46875 C 17.617188 -25.6875 16.765625 -23.253906 16.765625 -20.171875 C 16.765625 -17.085938 17.617188 -14.648438 19.328125 -12.859375 C 21.046875 -11.078125 23.132812 -10.1875 25.59375 -10.1875 C 28.050781 -10.1875 30.144531 -11.085938 31.875 -12.890625 C 33.613281 -14.703125 34.484375 -17.148438 34.484375 -20.234375 Z M 34.484375 -20.234375 "/></g></g></g><g fill="#000000" fill-opacity="1"><g transform="translate(608.517187, 118.385125)"><g/></g></g><g fill="#000000" fill-opacity="1"><g transform="translate(623.841859, 118.385125)"><g><path d="M 2.8125 -9.90625 C 4.457031 -11.207031 5.207031 -11.804688 5.0625 -11.703125 C 9.78125 -15.609375 13.5 -18.8125 16.21875 -21.3125 C 18.945312 -23.820312 21.25 -26.453125 23.125 -29.203125 C 25.007812 -31.953125 25.953125 -34.625 25.953125 -37.21875 C 25.953125 -39.195312 25.492188 -40.738281 24.578125 -41.84375 C 23.660156 -42.957031 22.285156 -43.515625 20.453125 -43.515625 C 18.617188 -43.515625 17.179688 -42.828125 16.140625 -41.453125 C 15.109375 -40.078125 14.59375 -38.140625 14.59375 -35.640625 L 2.671875 -35.640625 C 2.765625 -39.734375 3.644531 -43.148438 5.3125 -45.890625 C 6.976562 -48.640625 9.171875 -50.664062 11.890625 -51.96875 C 14.609375 -53.269531 17.632812 -53.921875 20.96875 -53.921875 C 26.695312 -53.921875 31.019531 -52.453125 33.9375 -49.515625 C 36.851562 -46.578125 38.3125 -42.742188 38.3125 -38.015625 C 38.3125 -32.859375 36.550781 -28.078125 33.03125 -23.671875 C 29.507812 -19.265625 25.03125 -14.960938 19.59375 -10.765625 L 39.109375 -10.765625 L 39.109375 -0.71875 L 2.8125 -0.71875 Z M 2.8125 -9.90625 "/></g></g></g><g clip-path="url(#a9c514c72b)"><g clip-path="url(#a29812bcf5)"><path fill="#ffa31a" d="M 695.300781 0 L 1119.695312 0 L 1119.695312 186.675781 L 695.300781 186.675781 Z M 695.300781 0 " fill-opacity="1" fill-rule="nonzero"/></g></g><g fill="#000000" fill-opacity="1"><g transform="translate(814.022245, 118.385125)"><g><path d="M 22.84375 0.5 C 19.132812 0.5 15.804688 -0.0976562 12.859375 -1.296875 C 9.921875 -2.503906 7.570312 -4.285156 5.8125 -6.640625 C 4.0625 -9.003906 3.132812 -11.847656 3.03125 -15.171875 L 16.1875 -15.171875 C 16.382812 -13.296875 17.035156 -11.863281 18.140625 -10.875 C 19.253906 -9.882812 20.703125 -9.390625 22.484375 -9.390625 C 24.304688 -9.390625 25.75 -9.8125 26.8125 -10.65625 C 27.875 -11.5 28.40625 -12.671875 28.40625 -14.171875 C 28.40625 -15.421875 27.984375 -16.453125 27.140625 -17.265625 C 26.296875 -18.085938 25.257812 -18.765625 24.03125 -19.296875 C 22.800781 -19.828125 21.054688 -20.429688 18.796875 -21.109375 C 15.515625 -22.117188 12.835938 -23.128906 10.765625 -24.140625 C 8.691406 -25.148438 6.910156 -26.644531 5.421875 -28.625 C 3.929688 -30.601562 3.1875 -33.179688 3.1875 -36.359375 C 3.1875 -41.078125 4.894531 -44.773438 8.3125 -47.453125 C 11.726562 -50.128906 16.1875 -51.46875 21.6875 -51.46875 C 27.269531 -51.46875 31.769531 -50.128906 35.1875 -47.453125 C 38.613281 -44.773438 40.445312 -41.050781 40.6875 -36.28125 L 27.328125 -36.28125 C 27.222656 -37.925781 26.617188 -39.21875 25.515625 -40.15625 C 24.410156 -41.09375 22.988281 -41.5625 21.25 -41.5625 C 19.757812 -41.5625 18.554688 -41.160156 17.640625 -40.359375 C 16.722656 -39.566406 16.265625 -38.425781 16.265625 -36.9375 C 16.265625 -35.300781 17.035156 -34.023438 18.578125 -33.109375 C 20.117188 -32.191406 22.523438 -31.203125 25.796875 -30.140625 C 29.078125 -29.035156 31.738281 -27.972656 33.78125 -26.953125 C 35.832031 -25.941406 37.601562 -24.472656 39.09375 -22.546875 C 40.59375 -20.617188 41.34375 -18.140625 41.34375 -15.109375 C 41.34375 -12.210938 40.609375 -9.582031 39.140625 -7.21875 C 37.671875 -4.863281 35.535156 -2.988281 32.734375 -1.59375 C 29.941406 -0.195312 26.644531 0.5 22.84375 0.5 Z M 22.84375 0.5 "/></g></g></g><g fill="#000000" fill-opacity="1"><g transform="translate(858.478257, 118.385125)"><g><path d="M 26.96875 -10.484375 L 26.96875 0 L 20.671875 0 C 16.191406 0 12.695312 -1.09375 10.1875 -3.28125 C 7.6875 -5.476562 6.4375 -9.054688 6.4375 -14.015625 L 6.4375 -30.0625 L 1.515625 -30.0625 L 1.515625 -40.328125 L 6.4375 -40.328125 L 6.4375 -50.15625 L 18.796875 -50.15625 L 18.796875 -40.328125 L 26.890625 -40.328125 L 26.890625 -30.0625 L 18.796875 -30.0625 L 18.796875 -13.875 C 18.796875 -12.675781 19.082031 -11.8125 19.65625 -11.28125 C 20.238281 -10.75 21.203125 -10.484375 22.546875 -10.484375 Z M 26.96875 -10.484375 "/></g></g></g><g fill="#000000" fill-opacity="1"><g transform="translate(887.826452, 118.385125)"><g><path d="M 42.5 -20.8125 C 42.5 -19.65625 42.425781 -18.453125 42.28125 -17.203125 L 14.3125 -17.203125 C 14.5 -14.691406 15.300781 -12.773438 16.71875 -11.453125 C 18.144531 -10.128906 19.894531 -9.46875 21.96875 -9.46875 C 25.050781 -9.46875 27.195312 -10.769531 28.40625 -13.375 L 41.5625 -13.375 C 40.882812 -10.71875 39.664062 -8.328125 37.90625 -6.203125 C 36.144531 -4.085938 33.941406 -2.425781 31.296875 -1.21875 C 28.648438 -0.0195312 25.6875 0.578125 22.40625 0.578125 C 18.457031 0.578125 14.941406 -0.265625 11.859375 -1.953125 C 8.773438 -3.640625 6.363281 -6.046875 4.625 -9.171875 C 2.894531 -12.304688 2.03125 -15.972656 2.03125 -20.171875 C 2.03125 -24.359375 2.882812 -28.015625 4.59375 -31.140625 C 6.300781 -34.273438 8.695312 -36.6875 11.78125 -38.375 C 14.863281 -40.0625 18.40625 -40.90625 22.40625 -40.90625 C 26.3125 -40.90625 29.78125 -40.085938 32.8125 -38.453125 C 35.851562 -36.816406 38.226562 -34.476562 39.9375 -31.4375 C 41.644531 -28.40625 42.5 -24.863281 42.5 -20.8125 Z M 29.859375 -24.0625 C 29.859375 -26.1875 29.132812 -27.875 27.6875 -29.125 C 26.238281 -30.382812 24.429688 -31.015625 22.265625 -31.015625 C 20.191406 -31.015625 18.441406 -30.410156 17.015625 -29.203125 C 15.597656 -27.992188 14.722656 -26.28125 14.390625 -24.0625 Z M 29.859375 -24.0625 "/></g></g></g><g fill="#000000" fill-opacity="1"><g transform="translate(932.354746, 118.385125)"><g><path d="M 16.84375 -34.625 C 18.050781 -36.5 19.710938 -38.015625 21.828125 -39.171875 C 23.953125 -40.328125 26.4375 -40.90625 29.28125 -40.90625 C 32.601562 -40.90625 35.613281 -40.0625 38.3125 -38.375 C 41.007812 -36.6875 43.140625 -34.273438 44.703125 -31.140625 C 46.273438 -28.015625 47.0625 -24.378906 47.0625 -20.234375 C 47.0625 -16.085938 46.273438 -12.4375 44.703125 -9.28125 C 43.140625 -6.125 41.007812 -3.691406 38.3125 -1.984375 C 35.613281 -0.273438 32.601562 0.578125 29.28125 0.578125 C 26.476562 0.578125 24.003906 0 21.859375 -1.15625 C 19.722656 -2.3125 18.050781 -3.804688 16.84375 -5.640625 L 16.84375 19.234375 L 4.484375 19.234375 L 4.484375 -40.328125 L 16.84375 -40.328125 Z M 34.484375 -20.234375 C 34.484375 -23.316406 33.625 -25.738281 31.90625 -27.5 C 30.195312 -29.257812 28.09375 -30.140625 25.59375 -30.140625 C 23.132812 -30.140625 21.046875 -29.25 19.328125 -27.46875 C 17.617188 -25.6875 16.765625 -23.253906 16.765625 -20.171875 C 16.765625 -17.085938 17.617188 -14.648438 19.328125 -12.859375 C 21.046875 -11.078125 23.132812 -10.1875 25.59375 -10.1875 C 28.050781 -10.1875 30.144531 -11.085938 31.875 -12.890625 C 33.613281 -14.703125 34.484375 -17.148438 34.484375 -20.234375 Z M 34.484375 -20.234375 "/></g></g></g><g fill="#000000" fill-opacity="1"><g transform="translate(981.437065, 118.385125)"><g/></g></g><g fill="#000000" fill-opacity="1"><g transform="translate(996.761737, 118.385125)"><g><path d="M 3.6875 -37.875 C 3.875 -43.03125 5.554688 -47.003906 8.734375 -49.796875 C 11.921875 -52.597656 16.238281 -54 21.6875 -54 C 25.300781 -54 28.394531 -53.367188 30.96875 -52.109375 C 33.550781 -50.859375 35.503906 -49.148438 36.828125 -46.984375 C 38.148438 -44.816406 38.8125 -42.382812 38.8125 -39.6875 C 38.8125 -36.5 38.015625 -33.90625 36.421875 -31.90625 C 34.835938 -29.90625 32.984375 -28.546875 30.859375 -27.828125 L 30.859375 -27.546875 C 33.609375 -26.628906 35.773438 -25.109375 37.359375 -22.984375 C 38.953125 -20.867188 39.75 -18.144531 39.75 -14.8125 C 39.75 -11.832031 39.0625 -9.195312 37.6875 -6.90625 C 36.320312 -4.613281 34.320312 -2.816406 31.6875 -1.515625 C 29.0625 -0.210938 25.941406 0.4375 22.328125 0.4375 C 16.546875 0.4375 11.929688 -0.984375 8.484375 -3.828125 C 5.046875 -6.671875 3.226562 -10.960938 3.03125 -16.703125 L 15.03125 -16.703125 C 15.082031 -14.578125 15.6875 -12.898438 16.84375 -11.671875 C 18 -10.441406 19.6875 -9.828125 21.90625 -9.828125 C 23.78125 -9.828125 25.234375 -10.367188 26.265625 -11.453125 C 27.304688 -12.535156 27.828125 -13.96875 27.828125 -15.75 C 27.828125 -18.070312 27.09375 -19.75 25.625 -20.78125 C 24.15625 -21.8125 21.804688 -22.328125 18.578125 -22.328125 L 16.265625 -22.328125 L 16.265625 -32.375 L 18.578125 -32.375 C 21.035156 -32.375 23.019531 -32.796875 24.53125 -33.640625 C 26.050781 -34.484375 26.8125 -35.992188 26.8125 -38.171875 C 26.8125 -39.898438 26.328125 -41.242188 25.359375 -42.203125 C 24.398438 -43.171875 23.078125 -43.65625 21.390625 -43.65625 C 19.566406 -43.65625 18.207031 -43.097656 17.3125 -41.984375 C 16.414062 -40.878906 15.894531 -39.507812 15.75 -37.875 Z M 3.6875 -37.875 "/></g></g></g></svg>