<svg xmlns="http://www.w3.org/2000/svg" xmlns:xlink="http://www.w3.org/1999/xlink" width="1920" zoomAndPan="magnify" viewBox="0 0 1440 187" height="auto" preserveAspectRatio="xMidYMid meet" version="1.0"><defs><g/><clipPath id="c9d334159c"><path d="M 1069.613281 0.824219 L 1440 0.824219 L 1440 186.019531 L 1069.613281 186.019531 Z M 1069.613281 0.824219 " clip-rule="nonzero"/></clipPath><clipPath id="dd5dbac521"><path d="M 1069.613281 0.824219 L 1347.402344 0.824219 L 1440 93.421875 L 1347.402344 186.019531 L 1069.613281 186.019531 L 1162.207031 93.421875 Z M 1069.613281 0.824219 " clip-rule="nonzero"/></clipPath><clipPath id="f9c50e96f5"><path d="M 1226.164062 0.824219 L 1438.847656 0.824219 L 1438.847656 186.019531 L 1226.164062 186.019531 Z M 1226.164062 0.824219 " clip-rule="nonzero"/></clipPath><clipPath id="3beded419e"><path d="M 1319.410156 186.019531 L 1438.847656 186.019531 L 1438.847656 0.824219 L 1319.410156 0.824219 L 1226.8125 93.421875 Z M 1319.410156 186.019531 " clip-rule="nonzero"/></clipPath><clipPath id="fa23845073"><path d="M 0 0.824219 L 370.386719 0.824219 L 370.386719 186.019531 L 0 186.019531 Z M 0 0.824219 " clip-rule="nonzero"/></clipPath><clipPath id="a56b98c0a0"><path d="M 277.792969 0.824219 L 0 0.824219 L 0 186.019531 L 277.792969 186.019531 L 370.386719 93.421875 Z M 277.792969 0.824219 " clip-rule="nonzero"/></clipPath><clipPath id="518314f09f"><path d="M 318.601562 0 L 740 0 L 740 185.195312 L 318.601562 185.195312 Z M 318.601562 0 " clip-rule="nonzero"/></clipPath><clipPath id="2ef6c7a42b"><path d="M 318.601562 0 L 647.386719 0 L 739.984375 92.597656 L 647.386719 185.195312 L 318.601562 185.195312 L 411.199219 92.597656 Z M 318.601562 0 " clip-rule="nonzero"/></clipPath><clipPath id="12795b2799"><path d="M 689.78125 0 L 1111 0 L 1111 185.195312 L 689.78125 185.195312 Z M 689.78125 0 " clip-rule="nonzero"/></clipPath><clipPath id="eaacb5e641"><path d="M 689.78125 0 L 1018.566406 0 L 1111.164062 92.597656 L 1018.566406 185.195312 L 689.78125 185.195312 L 782.378906 92.597656 Z M 689.78125 0 " clip-rule="nonzero"/></clipPath></defs><g clip-path="url(#c9d334159c)"><g clip-path="url(#dd5dbac521)"><path fill="#ffa31a" d="M 1069.613281 0.824219 L 1440 0.824219 L 1440 186.019531 L 1069.613281 186.019531 Z M 1069.613281 0.824219 " fill-opacity="1" fill-rule="nonzero"/></g></g><g clip-path="url(#f9c50e96f5)"><g clip-path="url(#3beded419e)"><path fill="#ffa31a" d="M 1438.847656 186.019531 L 1226.886719 186.019531 L 1226.886719 0.824219 L 1438.847656 0.824219 Z M 1438.847656 186.019531 " fill-opacity="1" fill-rule="nonzero"/></g></g><g fill="#000000" fill-opacity="1"><g transform="translate(1192.972554, 118.269118)"><g><path d="M 37.21875 -50.34375 L 37.21875 -40.515625 L 16.703125 -40.515625 L 16.703125 -29.90625 L 32.0625 -29.90625 L 32.0625 -20.375 L 16.703125 -20.375 L 16.703125 0 L 4.453125 0 L 4.453125 -50.34375 Z M 37.21875 -50.34375 "/></g></g></g><g fill="#000000" fill-opacity="1"><g transform="translate(1232.199202, 118.269118)"><g><path d="M 10.609375 -44.171875 C 8.460938 -44.171875 6.707031 -44.804688 5.34375 -46.078125 C 3.976562 -47.347656 3.296875 -48.914062 3.296875 -50.78125 C 3.296875 -52.6875 3.976562 -54.273438 5.34375 -55.546875 C 6.707031 -56.816406 8.460938 -57.453125 10.609375 -57.453125 C 12.710938 -57.453125 14.445312 -56.816406 15.8125 -55.546875 C 17.175781 -54.273438 17.859375 -52.6875 17.859375 -50.78125 C 17.859375 -48.914062 17.175781 -47.347656 15.8125 -46.078125 C 14.445312 -44.804688 12.710938 -44.171875 10.609375 -44.171875 Z M 16.703125 -40.015625 L 16.703125 0 L 4.453125 0 L 4.453125 -40.015625 Z M 16.703125 -40.015625 "/></g></g></g><g fill="#000000" fill-opacity="1"><g transform="translate(1253.354344, 118.269118)"><g><path d="M 28.828125 -40.453125 C 33.515625 -40.453125 37.253906 -38.929688 40.046875 -35.890625 C 42.847656 -32.859375 44.25 -28.6875 44.25 -23.375 L 44.25 0 L 32.0625 0 L 32.0625 -21.734375 C 32.0625 -24.410156 31.367188 -26.488281 29.984375 -27.96875 C 28.597656 -29.445312 26.734375 -30.1875 24.390625 -30.1875 C 22.046875 -30.1875 20.175781 -29.445312 18.78125 -27.96875 C 17.394531 -26.488281 16.703125 -24.410156 16.703125 -21.734375 L 16.703125 0 L 4.453125 0 L 4.453125 -40.015625 L 16.703125 -40.015625 L 16.703125 -34.71875 C 17.953125 -36.476562 19.628906 -37.875 21.734375 -38.90625 C 23.835938 -39.9375 26.203125 -40.453125 28.828125 -40.453125 Z M 28.828125 -40.453125 "/></g></g></g><g fill="#000000" fill-opacity="1"><g transform="translate(1301.688463, 118.269118)"><g><path d="M 2.015625 -20.078125 C 2.015625 -24.191406 2.789062 -27.800781 4.34375 -30.90625 C 5.894531 -34.019531 8.007812 -36.410156 10.6875 -38.078125 C 13.363281 -39.753906 16.351562 -40.59375 19.65625 -40.59375 C 22.46875 -40.59375 24.9375 -40.019531 27.0625 -38.875 C 29.195312 -37.726562 30.835938 -36.222656 31.984375 -34.359375 L 31.984375 -40.015625 L 44.25 -40.015625 L 44.25 0 L 31.984375 0 L 31.984375 -5.671875 C 30.785156 -3.804688 29.125 -2.296875 27 -1.140625 C 24.875 0.00390625 22.398438 0.578125 19.578125 0.578125 C 16.328125 0.578125 13.363281 -0.269531 10.6875 -1.96875 C 8.007812 -3.664062 5.894531 -6.078125 4.34375 -9.203125 C 2.789062 -12.335938 2.015625 -15.960938 2.015625 -20.078125 Z M 31.984375 -20.015625 C 31.984375 -23.066406 31.132812 -25.476562 29.4375 -27.25 C 27.738281 -29.019531 25.671875 -29.90625 23.234375 -29.90625 C 20.796875 -29.90625 18.726562 -29.03125 17.03125 -27.28125 C 15.332031 -25.539062 14.484375 -23.140625 14.484375 -20.078125 C 14.484375 -17.015625 15.332031 -14.585938 17.03125 -12.796875 C 18.726562 -11.003906 20.796875 -10.109375 23.234375 -10.109375 C 25.671875 -10.109375 27.738281 -10.992188 29.4375 -12.765625 C 31.132812 -14.535156 31.984375 -16.953125 31.984375 -20.015625 Z M 31.984375 -20.015625 "/></g></g></g><g fill="#000000" fill-opacity="1"><g transform="translate(1350.381143, 118.269118)"><g><path d="M 16.703125 -53.078125 L 16.703125 0 L 4.453125 0 L 4.453125 -53.078125 Z M 16.703125 -53.078125 "/></g></g></g><g clip-path="url(#fa23845073)"><g clip-path="url(#a56b98c0a0)"><path fill="#2bd353" d="M 0 0.824219 L 370.386719 0.824219 L 370.386719 186.019531 L 0 186.019531 Z M 0 0.824219 " fill-opacity="1" fill-rule="nonzero"/></g></g><g clip-path="url(#518314f09f)"><g clip-path="url(#2ef6c7a42b)"><path fill="#ffa31a" d="M 318.601562 0 L 739.628906 0 L 739.628906 185.195312 L 318.601562 185.195312 Z M 318.601562 0 " fill-opacity="1" fill-rule="nonzero"/></g></g><g fill="#000000" fill-opacity="1"><g transform="translate(437.600576, 117.4451)"><g><path d="M 22.65625 0.5 C 18.976562 0.5 15.679688 -0.09375 12.765625 -1.28125 C 9.847656 -2.476562 7.515625 -4.25 5.765625 -6.59375 C 4.023438 -8.9375 3.109375 -11.757812 3.015625 -15.0625 L 16.0625 -15.0625 C 16.257812 -13.195312 16.90625 -11.773438 18 -10.796875 C 19.101562 -9.816406 20.535156 -9.328125 22.296875 -9.328125 C 24.117188 -9.328125 25.554688 -9.742188 26.609375 -10.578125 C 27.660156 -11.410156 28.1875 -12.570312 28.1875 -14.0625 C 28.1875 -15.300781 27.765625 -16.328125 26.921875 -17.140625 C 26.085938 -17.953125 25.0625 -18.617188 23.84375 -19.140625 C 22.625 -19.671875 20.890625 -20.269531 18.640625 -20.9375 C 15.390625 -21.945312 12.738281 -22.953125 10.6875 -23.953125 C 8.632812 -24.953125 6.863281 -26.429688 5.375 -28.390625 C 3.894531 -30.359375 3.15625 -32.921875 3.15625 -36.078125 C 3.15625 -40.765625 4.851562 -44.429688 8.25 -47.078125 C 11.644531 -49.734375 16.066406 -51.0625 21.515625 -51.0625 C 27.054688 -51.0625 31.523438 -49.734375 34.921875 -47.078125 C 38.316406 -44.429688 40.132812 -40.738281 40.375 -36 L 27.109375 -36 C 27.015625 -37.625 26.414062 -38.898438 25.3125 -39.828125 C 24.21875 -40.765625 22.804688 -41.234375 21.078125 -41.234375 C 19.597656 -41.234375 18.40625 -40.835938 17.5 -40.046875 C 16.59375 -39.265625 16.140625 -38.128906 16.140625 -36.640625 C 16.140625 -35.015625 16.90625 -33.75 18.4375 -32.84375 C 19.96875 -31.9375 22.359375 -30.957031 25.609375 -29.90625 C 28.859375 -28.800781 31.5 -27.75 33.53125 -26.75 C 35.5625 -25.75 37.316406 -24.289062 38.796875 -22.375 C 40.273438 -20.457031 41.015625 -17.992188 41.015625 -14.984375 C 41.015625 -12.117188 40.285156 -9.515625 38.828125 -7.171875 C 37.367188 -4.828125 35.253906 -2.960938 32.484375 -1.578125 C 29.710938 -0.191406 26.4375 0.5 22.65625 0.5 Z M 22.65625 0.5 "/></g></g></g><g fill="#000000" fill-opacity="1"><g transform="translate(481.703667, 117.4451)"><g><path d="M 26.75 -10.40625 L 26.75 0 L 20.515625 0 C 16.066406 0 12.597656 -1.085938 10.109375 -3.265625 C 7.628906 -5.441406 6.390625 -8.988281 6.390625 -13.90625 L 6.390625 -29.828125 L 1.5 -29.828125 L 1.5 -40.015625 L 6.390625 -40.015625 L 6.390625 -49.765625 L 18.640625 -49.765625 L 18.640625 -40.015625 L 26.671875 -40.015625 L 26.671875 -29.828125 L 18.640625 -29.828125 L 18.640625 -13.765625 C 18.640625 -12.578125 18.925781 -11.71875 19.5 -11.1875 C 20.082031 -10.664062 21.039062 -10.40625 22.375 -10.40625 Z M 26.75 -10.40625 "/></g></g></g><g fill="#000000" fill-opacity="1"><g transform="translate(510.818877, 117.4451)"><g><path d="M 42.171875 -20.65625 C 42.171875 -19.507812 42.097656 -18.3125 41.953125 -17.0625 L 14.203125 -17.0625 C 14.390625 -14.582031 15.1875 -12.679688 16.59375 -11.359375 C 18.007812 -10.046875 19.742188 -9.390625 21.796875 -9.390625 C 24.859375 -9.390625 26.988281 -10.679688 28.1875 -13.265625 L 41.234375 -13.265625 C 40.566406 -10.640625 39.359375 -8.273438 37.609375 -6.171875 C 35.867188 -4.066406 33.679688 -2.414062 31.046875 -1.21875 C 28.421875 -0.0195312 25.484375 0.578125 22.234375 0.578125 C 18.316406 0.578125 14.828125 -0.257812 11.765625 -1.9375 C 8.703125 -3.613281 6.3125 -6.003906 4.59375 -9.109375 C 2.875 -12.210938 2.015625 -15.847656 2.015625 -20.015625 C 2.015625 -24.171875 2.859375 -27.800781 4.546875 -30.90625 C 6.242188 -34.019531 8.625 -36.410156 11.6875 -38.078125 C 14.75 -39.753906 18.265625 -40.59375 22.234375 -40.59375 C 26.109375 -40.59375 29.550781 -39.78125 32.5625 -38.15625 C 35.570312 -36.53125 37.925781 -34.207031 39.625 -31.1875 C 41.320312 -28.175781 42.171875 -24.664062 42.171875 -20.65625 Z M 29.625 -23.875 C 29.625 -25.976562 28.90625 -27.648438 27.46875 -28.890625 C 26.03125 -30.140625 24.238281 -30.765625 22.09375 -30.765625 C 20.03125 -30.765625 18.296875 -30.164062 16.890625 -28.96875 C 15.484375 -27.78125 14.609375 -26.082031 14.265625 -23.875 Z M 29.625 -23.875 "/></g></g></g><g fill="#000000" fill-opacity="1"><g transform="translate(554.993676, 117.4451)"><g><path d="M 16.703125 -34.359375 C 17.898438 -36.222656 19.550781 -37.726562 21.65625 -38.875 C 23.757812 -40.019531 26.222656 -40.59375 29.046875 -40.59375 C 32.347656 -40.59375 35.335938 -39.753906 38.015625 -38.078125 C 40.691406 -36.410156 42.804688 -34.019531 44.359375 -30.90625 C 45.910156 -27.800781 46.6875 -24.191406 46.6875 -20.078125 C 46.6875 -15.960938 45.910156 -12.335938 44.359375 -9.203125 C 42.804688 -6.078125 40.691406 -3.664062 38.015625 -1.96875 C 35.335938 -0.269531 32.347656 0.578125 29.046875 0.578125 C 26.273438 0.578125 23.820312 0.00390625 21.6875 -1.140625 C 19.5625 -2.296875 17.898438 -3.78125 16.703125 -5.59375 L 16.703125 19.078125 L 4.453125 19.078125 L 4.453125 -40.015625 L 16.703125 -40.015625 Z M 34.203125 -20.078125 C 34.203125 -23.140625 33.351562 -25.539062 31.65625 -27.28125 C 29.96875 -29.03125 27.878906 -29.90625 25.390625 -29.90625 C 22.953125 -29.90625 20.882812 -29.019531 19.1875 -27.25 C 17.488281 -25.476562 16.640625 -23.066406 16.640625 -20.015625 C 16.640625 -16.953125 17.488281 -14.535156 19.1875 -12.765625 C 20.882812 -10.992188 22.953125 -10.109375 25.390625 -10.109375 C 27.828125 -10.109375 29.90625 -11.003906 31.625 -12.796875 C 33.34375 -14.585938 34.203125 -17.015625 34.203125 -20.078125 Z M 34.203125 -20.078125 "/></g></g></g><g fill="#000000" fill-opacity="1"><g transform="translate(603.686347, 117.4451)"><g/></g></g><g fill="#000000" fill-opacity="1"><g transform="translate(618.889362, 117.4451)"><g><path d="M 2.796875 -9.828125 C 4.421875 -11.117188 5.160156 -11.71875 5.015625 -11.625 C 9.703125 -15.488281 13.394531 -18.664062 16.09375 -21.15625 C 18.800781 -23.644531 21.085938 -26.25 22.953125 -28.96875 C 24.816406 -31.695312 25.75 -34.351562 25.75 -36.9375 C 25.75 -38.894531 25.289062 -40.421875 24.375 -41.515625 C 23.46875 -42.617188 22.109375 -43.171875 20.296875 -43.171875 C 18.484375 -43.171875 17.0625 -42.488281 16.03125 -41.125 C 15 -39.769531 14.484375 -37.847656 14.484375 -35.359375 L 2.65625 -35.359375 C 2.75 -39.421875 3.617188 -42.8125 5.265625 -45.53125 C 6.921875 -48.257812 9.097656 -50.269531 11.796875 -51.5625 C 14.492188 -52.851562 17.492188 -53.5 20.796875 -53.5 C 26.484375 -53.5 30.773438 -52.039062 33.671875 -49.125 C 36.566406 -46.207031 38.015625 -42.40625 38.015625 -37.71875 C 38.015625 -32.601562 36.269531 -27.859375 32.78125 -23.484375 C 29.289062 -19.109375 24.84375 -14.84375 19.4375 -10.6875 L 38.796875 -10.6875 L 38.796875 -0.71875 L 2.796875 -0.71875 Z M 2.796875 -9.828125 "/></g></g></g><g clip-path="url(#12795b2799)"><g clip-path="url(#eaacb5e641)"><path fill="#ffa31a" d="M 689.78125 0 L 1110.808594 0 L 1110.808594 185.195312 L 689.78125 185.195312 Z M 689.78125 0 " fill-opacity="1" fill-rule="nonzero"/></g></g><g fill="#000000" fill-opacity="1"><g transform="translate(807.559886, 117.4451)"><g><path d="M 22.65625 0.5 C 18.976562 0.5 15.679688 -0.09375 12.765625 -1.28125 C 9.847656 -2.476562 7.515625 -4.25 5.765625 -6.59375 C 4.023438 -8.9375 3.109375 -11.757812 3.015625 -15.0625 L 16.0625 -15.0625 C 16.257812 -13.195312 16.90625 -11.773438 18 -10.796875 C 19.101562 -9.816406 20.535156 -9.328125 22.296875 -9.328125 C 24.117188 -9.328125 25.554688 -9.742188 26.609375 -10.578125 C 27.660156 -11.410156 28.1875 -12.570312 28.1875 -14.0625 C 28.1875 -15.300781 27.765625 -16.328125 26.921875 -17.140625 C 26.085938 -17.953125 25.0625 -18.617188 23.84375 -19.140625 C 22.625 -19.671875 20.890625 -20.269531 18.640625 -20.9375 C 15.390625 -21.945312 12.738281 -22.953125 10.6875 -23.953125 C 8.632812 -24.953125 6.863281 -26.429688 5.375 -28.390625 C 3.894531 -30.359375 3.15625 -32.921875 3.15625 -36.078125 C 3.15625 -40.765625 4.851562 -44.429688 8.25 -47.078125 C 11.644531 -49.734375 16.066406 -51.0625 21.515625 -51.0625 C 27.054688 -51.0625 31.523438 -49.734375 34.921875 -47.078125 C 38.316406 -44.429688 40.132812 -40.738281 40.375 -36 L 27.109375 -36 C 27.015625 -37.625 26.414062 -38.898438 25.3125 -39.828125 C 24.21875 -40.765625 22.804688 -41.234375 21.078125 -41.234375 C 19.597656 -41.234375 18.40625 -40.835938 17.5 -40.046875 C 16.59375 -39.265625 16.140625 -38.128906 16.140625 -36.640625 C 16.140625 -35.015625 16.90625 -33.75 18.4375 -32.84375 C 19.96875 -31.9375 22.359375 -30.957031 25.609375 -29.90625 C 28.859375 -28.800781 31.5 -27.75 33.53125 -26.75 C 35.5625 -25.75 37.316406 -24.289062 38.796875 -22.375 C 40.273438 -20.457031 41.015625 -17.992188 41.015625 -14.984375 C 41.015625 -12.117188 40.285156 -9.515625 38.828125 -7.171875 C 37.367188 -4.828125 35.253906 -2.960938 32.484375 -1.578125 C 29.710938 -0.191406 26.4375 0.5 22.65625 0.5 Z M 22.65625 0.5 "/></g></g></g><g fill="#000000" fill-opacity="1"><g transform="translate(851.662976, 117.4451)"><g><path d="M 26.75 -10.40625 L 26.75 0 L 20.515625 0 C 16.066406 0 12.597656 -1.085938 10.109375 -3.265625 C 7.628906 -5.441406 6.390625 -8.988281 6.390625 -13.90625 L 6.390625 -29.828125 L 1.5 -29.828125 L 1.5 -40.015625 L 6.390625 -40.015625 L 6.390625 -49.765625 L 18.640625 -49.765625 L 18.640625 -40.015625 L 26.671875 -40.015625 L 26.671875 -29.828125 L 18.640625 -29.828125 L 18.640625 -13.765625 C 18.640625 -12.578125 18.925781 -11.71875 19.5 -11.1875 C 20.082031 -10.664062 21.039062 -10.40625 22.375 -10.40625 Z M 26.75 -10.40625 "/></g></g></g><g fill="#000000" fill-opacity="1"><g transform="translate(880.778186, 117.4451)"><g><path d="M 42.171875 -20.65625 C 42.171875 -19.507812 42.097656 -18.3125 41.953125 -17.0625 L 14.203125 -17.0625 C 14.390625 -14.582031 15.1875 -12.679688 16.59375 -11.359375 C 18.007812 -10.046875 19.742188 -9.390625 21.796875 -9.390625 C 24.859375 -9.390625 26.988281 -10.679688 28.1875 -13.265625 L 41.234375 -13.265625 C 40.566406 -10.640625 39.359375 -8.273438 37.609375 -6.171875 C 35.867188 -4.066406 33.679688 -2.414062 31.046875 -1.21875 C 28.421875 -0.0195312 25.484375 0.578125 22.234375 0.578125 C 18.316406 0.578125 14.828125 -0.257812 11.765625 -1.9375 C 8.703125 -3.613281 6.3125 -6.003906 4.59375 -9.109375 C 2.875 -12.210938 2.015625 -15.847656 2.015625 -20.015625 C 2.015625 -24.171875 2.859375 -27.800781 4.546875 -30.90625 C 6.242188 -34.019531 8.625 -36.410156 11.6875 -38.078125 C 14.75 -39.753906 18.265625 -40.59375 22.234375 -40.59375 C 26.109375 -40.59375 29.550781 -39.78125 32.5625 -38.15625 C 35.570312 -36.53125 37.925781 -34.207031 39.625 -31.1875 C 41.320312 -28.175781 42.171875 -24.664062 42.171875 -20.65625 Z M 29.625 -23.875 C 29.625 -25.976562 28.90625 -27.648438 27.46875 -28.890625 C 26.03125 -30.140625 24.238281 -30.765625 22.09375 -30.765625 C 20.03125 -30.765625 18.296875 -30.164062 16.890625 -28.96875 C 15.484375 -27.78125 14.609375 -26.082031 14.265625 -23.875 Z M 29.625 -23.875 "/></g></g></g><g fill="#000000" fill-opacity="1"><g transform="translate(924.952985, 117.4451)"><g><path d="M 16.703125 -34.359375 C 17.898438 -36.222656 19.550781 -37.726562 21.65625 -38.875 C 23.757812 -40.019531 26.222656 -40.59375 29.046875 -40.59375 C 32.347656 -40.59375 35.335938 -39.753906 38.015625 -38.078125 C 40.691406 -36.410156 42.804688 -34.019531 44.359375 -30.90625 C 45.910156 -27.800781 46.6875 -24.191406 46.6875 -20.078125 C 46.6875 -15.960938 45.910156 -12.335938 44.359375 -9.203125 C 42.804688 -6.078125 40.691406 -3.664062 38.015625 -1.96875 C 35.335938 -0.269531 32.347656 0.578125 29.046875 0.578125 C 26.273438 0.578125 23.820312 0.00390625 21.6875 -1.140625 C 19.5625 -2.296875 17.898438 -3.78125 16.703125 -5.59375 L 16.703125 19.078125 L 4.453125 19.078125 L 4.453125 -40.015625 L 16.703125 -40.015625 Z M 34.203125 -20.078125 C 34.203125 -23.140625 33.351562 -25.539062 31.65625 -27.28125 C 29.96875 -29.03125 27.878906 -29.90625 25.390625 -29.90625 C 22.953125 -29.90625 20.882812 -29.019531 19.1875 -27.25 C 17.488281 -25.476562 16.640625 -23.066406 16.640625 -20.015625 C 16.640625 -16.953125 17.488281 -14.535156 19.1875 -12.765625 C 20.882812 -10.992188 22.953125 -10.109375 25.390625 -10.109375 C 27.828125 -10.109375 29.90625 -11.003906 31.625 -12.796875 C 33.34375 -14.585938 34.203125 -17.015625 34.203125 -20.078125 Z M 34.203125 -20.078125 "/></g></g></g><g fill="#000000" fill-opacity="1"><g transform="translate(973.645657, 117.4451)"><g/></g></g><g fill="#000000" fill-opacity="1"><g transform="translate(988.848671, 117.4451)"><g><path d="M 3.65625 -37.578125 C 3.84375 -42.691406 5.515625 -46.632812 8.671875 -49.40625 C 11.828125 -52.1875 16.109375 -53.578125 21.515625 -53.578125 C 25.097656 -53.578125 28.164062 -52.953125 30.71875 -51.703125 C 33.28125 -50.460938 35.21875 -48.765625 36.53125 -46.609375 C 37.851562 -44.460938 38.515625 -42.050781 38.515625 -39.375 C 38.515625 -36.21875 37.722656 -33.644531 36.140625 -31.65625 C 34.566406 -29.675781 32.726562 -28.328125 30.625 -27.609375 L 30.625 -27.328125 C 33.351562 -26.421875 35.503906 -24.914062 37.078125 -22.8125 C 38.648438 -20.707031 39.4375 -18.003906 39.4375 -14.703125 C 39.4375 -11.734375 38.753906 -9.113281 37.390625 -6.84375 C 36.035156 -4.570312 34.054688 -2.789062 31.453125 -1.5 C 28.847656 -0.207031 25.75 0.4375 22.15625 0.4375 C 16.425781 0.4375 11.847656 -0.972656 8.421875 -3.796875 C 5.003906 -6.617188 3.203125 -10.875 3.015625 -16.5625 L 14.921875 -16.5625 C 14.960938 -14.457031 15.554688 -12.796875 16.703125 -11.578125 C 17.859375 -10.359375 19.535156 -9.75 21.734375 -9.75 C 23.597656 -9.75 25.039062 -10.285156 26.0625 -11.359375 C 27.09375 -12.441406 27.609375 -13.867188 27.609375 -15.640625 C 27.609375 -17.929688 26.878906 -19.585938 25.421875 -20.609375 C 23.960938 -21.640625 21.632812 -22.15625 18.4375 -22.15625 L 16.140625 -22.15625 L 16.140625 -32.125 L 18.4375 -32.125 C 20.875 -32.125 22.84375 -32.539062 24.34375 -33.375 C 25.851562 -34.21875 26.609375 -35.71875 26.609375 -37.875 C 26.609375 -39.59375 26.128906 -40.925781 25.171875 -41.875 C 24.210938 -42.832031 22.898438 -43.3125 21.234375 -43.3125 C 19.410156 -43.3125 18.054688 -42.757812 17.171875 -41.65625 C 16.285156 -40.5625 15.773438 -39.203125 15.640625 -37.578125 Z M 3.65625 -37.578125 "/></g></g></g><g fill="#000000" fill-opacity="1"><g transform="translate(50.959662, 117.445111)"><g><path d="M 22.65625 0.5 C 18.976562 0.5 15.679688 -0.09375 12.765625 -1.28125 C 9.847656 -2.476562 7.515625 -4.25 5.765625 -6.59375 C 4.023438 -8.9375 3.109375 -11.757812 3.015625 -15.0625 L 16.0625 -15.0625 C 16.257812 -13.195312 16.90625 -11.773438 18 -10.796875 C 19.101562 -9.816406 20.535156 -9.328125 22.296875 -9.328125 C 24.117188 -9.328125 25.554688 -9.742188 26.609375 -10.578125 C 27.660156 -11.410156 28.1875 -12.570312 28.1875 -14.0625 C 28.1875 -15.300781 27.765625 -16.328125 26.921875 -17.140625 C 26.085938 -17.953125 25.0625 -18.617188 23.84375 -19.140625 C 22.625 -19.671875 20.890625 -20.269531 18.640625 -20.9375 C 15.390625 -21.945312 12.738281 -22.953125 10.6875 -23.953125 C 8.632812 -24.953125 6.863281 -26.429688 5.375 -28.390625 C 3.894531 -30.359375 3.15625 -32.921875 3.15625 -36.078125 C 3.15625 -40.765625 4.851562 -44.429688 8.25 -47.078125 C 11.644531 -49.734375 16.066406 -51.0625 21.515625 -51.0625 C 27.054688 -51.0625 31.523438 -49.734375 34.921875 -47.078125 C 38.316406 -44.429688 40.132812 -40.738281 40.375 -36 L 27.109375 -36 C 27.015625 -37.625 26.414062 -38.898438 25.3125 -39.828125 C 24.21875 -40.765625 22.804688 -41.234375 21.078125 -41.234375 C 19.597656 -41.234375 18.40625 -40.835938 17.5 -40.046875 C 16.59375 -39.265625 16.140625 -38.128906 16.140625 -36.640625 C 16.140625 -35.015625 16.90625 -33.75 18.4375 -32.84375 C 19.96875 -31.9375 22.359375 -30.957031 25.609375 -29.90625 C 28.859375 -28.800781 31.5 -27.75 33.53125 -26.75 C 35.5625 -25.75 37.316406 -24.289062 38.796875 -22.375 C 40.273438 -20.457031 41.015625 -17.992188 41.015625 -14.984375 C 41.015625 -12.117188 40.285156 -9.515625 38.828125 -7.171875 C 37.367188 -4.828125 35.253906 -2.960938 32.484375 -1.578125 C 29.710938 -0.191406 26.4375 0.5 22.65625 0.5 Z M 22.65625 0.5 "/></g></g></g><g fill="#000000" fill-opacity="1"><g transform="translate(95.062756, 117.445111)"><g><path d="M 26.75 -10.40625 L 26.75 0 L 20.515625 0 C 16.066406 0 12.597656 -1.085938 10.109375 -3.265625 C 7.628906 -5.441406 6.390625 -8.988281 6.390625 -13.90625 L 6.390625 -29.828125 L 1.5 -29.828125 L 1.5 -40.015625 L 6.390625 -40.015625 L 6.390625 -49.765625 L 18.640625 -49.765625 L 18.640625 -40.015625 L 26.671875 -40.015625 L 26.671875 -29.828125 L 18.640625 -29.828125 L 18.640625 -13.765625 C 18.640625 -12.578125 18.925781 -11.71875 19.5 -11.1875 C 20.082031 -10.664062 21.039062 -10.40625 22.375 -10.40625 Z M 26.75 -10.40625 "/></g></g></g><g fill="#000000" fill-opacity="1"><g transform="translate(124.177969, 117.445111)"><g><path d="M 42.171875 -20.65625 C 42.171875 -19.507812 42.097656 -18.3125 41.953125 -17.0625 L 14.203125 -17.0625 C 14.390625 -14.582031 15.1875 -12.679688 16.59375 -11.359375 C 18.007812 -10.046875 19.742188 -9.390625 21.796875 -9.390625 C 24.859375 -9.390625 26.988281 -10.679688 28.1875 -13.265625 L 41.234375 -13.265625 C 40.566406 -10.640625 39.359375 -8.273438 37.609375 -6.171875 C 35.867188 -4.066406 33.679688 -2.414062 31.046875 -1.21875 C 28.421875 -0.0195312 25.484375 0.578125 22.234375 0.578125 C 18.316406 0.578125 14.828125 -0.257812 11.765625 -1.9375 C 8.703125 -3.613281 6.3125 -6.003906 4.59375 -9.109375 C 2.875 -12.210938 2.015625 -15.847656 2.015625 -20.015625 C 2.015625 -24.171875 2.859375 -27.800781 4.546875 -30.90625 C 6.242188 -34.019531 8.625 -36.410156 11.6875 -38.078125 C 14.75 -39.753906 18.265625 -40.59375 22.234375 -40.59375 C 26.109375 -40.59375 29.550781 -39.78125 32.5625 -38.15625 C 35.570312 -36.53125 37.925781 -34.207031 39.625 -31.1875 C 41.320312 -28.175781 42.171875 -24.664062 42.171875 -20.65625 Z M 29.625 -23.875 C 29.625 -25.976562 28.90625 -27.648438 27.46875 -28.890625 C 26.03125 -30.140625 24.238281 -30.765625 22.09375 -30.765625 C 20.03125 -30.765625 18.296875 -30.164062 16.890625 -28.96875 C 15.484375 -27.78125 14.609375 -26.082031 14.265625 -23.875 Z M 29.625 -23.875 "/></g></g></g><g fill="#000000" fill-opacity="1"><g transform="translate(168.352772, 117.445111)"><g><path d="M 16.703125 -34.359375 C 17.898438 -36.222656 19.550781 -37.726562 21.65625 -38.875 C 23.757812 -40.019531 26.222656 -40.59375 29.046875 -40.59375 C 32.347656 -40.59375 35.335938 -39.753906 38.015625 -38.078125 C 40.691406 -36.410156 42.804688 -34.019531 44.359375 -30.90625 C 45.910156 -27.800781 46.6875 -24.191406 46.6875 -20.078125 C 46.6875 -15.960938 45.910156 -12.335938 44.359375 -9.203125 C 42.804688 -6.078125 40.691406 -3.664062 38.015625 -1.96875 C 35.335938 -0.269531 32.347656 0.578125 29.046875 0.578125 C 26.273438 0.578125 23.820312 0.00390625 21.6875 -1.140625 C 19.5625 -2.296875 17.898438 -3.78125 16.703125 -5.59375 L 16.703125 19.078125 L 4.453125 19.078125 L 4.453125 -40.015625 L 16.703125 -40.015625 Z M 34.203125 -20.078125 C 34.203125 -23.140625 33.351562 -25.539062 31.65625 -27.28125 C 29.96875 -29.03125 27.878906 -29.90625 25.390625 -29.90625 C 22.953125 -29.90625 20.882812 -29.019531 19.1875 -27.25 C 17.488281 -25.476562 16.640625 -23.066406 16.640625 -20.015625 C 16.640625 -16.953125 17.488281 -14.535156 19.1875 -12.765625 C 20.882812 -10.992188 22.953125 -10.109375 25.390625 -10.109375 C 27.828125 -10.109375 29.90625 -11.003906 31.625 -12.796875 C 33.34375 -14.585938 34.203125 -17.015625 34.203125 -20.078125 Z M 34.203125 -20.078125 "/></g></g></g><g fill="#000000" fill-opacity="1"><g transform="translate(217.045447, 117.445111)"><g/></g></g><g fill="#000000" fill-opacity="1"><g transform="translate(232.248463, 117.445111)"><g><path d="M 1.9375 -40.953125 L 1.9375 -52.359375 L 21.796875 -52.359375 L 21.796875 0 L 9.03125 0 L 9.03125 -40.953125 Z M 1.9375 -40.953125 "/></g></g></g></svg>